999
dxflib 3.12.2.0
  0
SECTION
  2
HEADER
  9
$ACADVER
  1
AC1015
  9
$HANDSEED
  5
FFFF
  9
$ANGBASE
 50
0.0
  9
$ANGDIR
 70
0
  9
$ATTMODE
 70
1
  9
$AUNITS
 70
0
  9
$AUPREC
 70
0
  9
$CECOLOR
 62
256
  9
$CELTSCALE
 40
1.0
  9
$CHAMFERA
 40
10.0
  9
$CHAMFERB
 40
10.0
  9
$CHAMFERC
 40
20.0
  9
$CHAMFERD
 40
0.0
  9
$CMLJUST
 70
0
  9
$CMLSCALE
 40
20.0
  9
$DIMADEC
 70
0
  9
$DIMALT
 70
0
  9
$DIMALTD
 70
3
  9
$DIMALTF
 40
0.03937007874016
  9
$DIMALTRND
 40
0.0
  9
$DIMALTTD
 70
3
  9
$DIMALTTZ
 70
0
  9
$DIMALTU
 70
2
  9
$DIMALTZ
 70
0
  9
$DIMAPOST
  1

  9
$DIMASZ
 40
2.5
  9
$DIMATFIT
 70
3
  9
$DIMAUNIT
 70
0
  9
$DIMAZIN
 70
0
  9
$DIMBLK
  1

  9
$DIMBLK1
  1

  9
$DIMBLK2
  1

  9
$DIMCEN
 40
2.5
  9
$DIMCLRD
 70
0
  9
$DIMCLRE
 70
0
  9
$DIMCLRT
 70
0
  9
$DIMDEC
 70
2
  9
$DIMDLE
 40
0.0
  9
$DIMDLI
 40
3.75
  9
$DIMDSEP
 70
44
  9
$DIMEXE
 40
1.25
  9
$DIMEXO
 40
0.625
  9
$DIMFRAC
 70
0
  9
$DIMGAP
 40
0.625
  9
$DIMJUST
 70
0
  9
$DIMLDRBLK
  1

  9
$DIMLFAC
 40
1.0
  9
$DIMLIM
 70
0
  9
$DIMLUNIT
 70
2
  9
$DIMLWD
 70
-2
  9
$DIMLWE
 70
-2
  9
$DIMPOST
  1

  9
$DIMRND
 40
0.0
  9
$DIMSAH
 70
0
  9
$DIMSCALE
 40
1.0
  9
$DIMSD1
 70
0
  9
$DIMSD2
 70
0
  9
$DIMSE1
 70
0
  9
$DIMSE2
 70
0
  9
$DIMSOXD
 70
0
  9
$DIMTAD
 70
1
  9
$DIMTDEC
 70
2
  9
$DIMTFAC
 40
1.0
  9
$DIMTIH
 70
0
  9
$DIMTIX
 70
0
  9
$DIMTM
 40
0.0
  9
$DIMTOFL
 70
1
  9
$DIMTOH
 70
0
  9
$DIMTOL
 70
0
  9
$DIMTOLJ
 70
0
  9
$DIMTP
 40
0.0
  9
$DIMTSZ
 40
0.0
  9
$DIMTVP
 40
0.0
  9
$DIMTXSTY
  7
Standard
  9
$DIMTXT
 40
2.5
  9
$DIMTZIN
 70
8
  9
$DIMUPT
 70
0
  9
$DIMZIN
 70
8
  9
$DISPSILH
 70
0
  9
$DWGCODEPAGE
  3
ANSI_1252
  9
$ELEVATION
 40
0.0
  9
$EXTMAX
 10
34.6679105811587931
 20
17.9727806457872283
 30
0.0
  9
$EXTMIN
 10
-12.6194200784218697
 20
-20.5245550417227705
 30
0.0
  9
$FILLETRAD
 40
10.0
  9
$FILLMODE
 70
1
  9
$INSBASE
 10
0.0
 20
0.0
 30
0.0
  9
$INSUNITS
 70
6
  9
$LIMCHECK
 70
0
  9
$LIMMAX
 10
420.0
 20
297.0
  9
$LIMMIN
 10
0.0
 20
0.0
  9
$LTSCALE
 40
500.0
  9
$LUNITS
 70
2
  9
$LUPREC
 70
3
  9
$MAXACTVP
 70
64
  9
$MEASUREMENT
 70
1
  9
$MIRRTEXT
 70
0
  9
$ORTHOMODE
 70
0
  9
$PDMODE
 70
0
  9
$PDSIZE
 40
0
  9
$PELEVATION
 40
0.0
  9
$PEXTMAX
 10
-100000000000000000000.0
 20
-100000000000000000000.0
 30
-100000000000000000000.0
  9
$PEXTMIN
 10
100000000000000000000.0
 20
100000000000000000000.0
 30
100000000000000000000.0
  9
$PINSBASE
 10
0.0
 20
0.0
 30
0.0
  9
$PLIMCHECK
 70
0
  9
$PLIMMAX
 10
0.0
 20
0.0
  9
$PLIMMIN
 10
0.0
 20
0.0
  9
$PLINEGEN
 70
0
  9
$PLINEWID
 40
0.0
  9
$PROXYGRAPHICS
 70
1
  9
$PSLTSCALE
 70
1
  9
$PUCSNAME
  2

  9
$PUCSORG
 10
0.0
 20
0.0
 30
0.0
  9
$PUCSXDIR
 10
1.0
 20
0.0
 30
0.0
  9
$PUCSYDIR
 10
0.0
 20
1.0
 30
0.0
  9
$QTEXTMODE
 70
0
  9
$REGENMODE
 70
1
  9
$SHADEDGE
 70
3
  9
$SHADEDIF
 70
70
  9
$SKETCHINC
 40
1.0
  9
$SKPOLY
 70
0
  9
$SPLFRAME
 70
0
  9
$SPLINESEGS
 70
8
  9
$SPLINETYPE
 70
6
  9
$SURFTAB1
 70
6
  9
$SURFTAB2
 70
6
  9
$SURFTYPE
 70
6
  9
$SURFU
 70
6
  9
$SURFV
 70
6
  9
$TEXTSIZE
 40
2.5
  9
$TEXTSTYLE
  7
Standard
  9
$THICKNESS
 40
0.0
  9
$TILEMODE
 70
1
  9
$TRACEWID
 40
1.0
  9
$TREEDEPTH
 70
3020
  9
$UCSNAME
  2

  9
$UCSORG
 10
0.0
 20
0.0
 30
0.0
  9
$UCSXDIR
 10
1.0
 20
0.0
 30
0.0
  9
$UCSYDIR
 10
0.0
 20
1.0
 30
0.0
  9
$UNITMODE
 70
0
  9
$USERI1
 70
0
  9
$USERI2
 70
0
  9
$USERI3
 70
0
  9
$USERI4
 70
0
  9
$USERI5
 70
0
  9
$USERR1
 40
0.0
  9
$USERR2
 40
0.0
  9
$USERR3
 40
0.0
  9
$USERR4
 40
0.0
  9
$USERR5
 40
0.0
  9
$USRTIMER
 70
1
  9
$VISRETAIN
 70
1
  0
ENDSEC
  0
SECTION
  2
TABLES
  0
TABLE
  2
VPORT
  5
8
100
AcDbSymbolTable
 70
1
  0
VPORT
  5
30
100
AcDbSymbolTableRecord
100
AcDbViewportTableRecord
  2
*Active
 70
0
 10
0.0
 20
0.0
 11
1.0
 21
1.0
 12
286.3055555555554861
 22
148.5
 13
0.0
 23
0.0
 14
10.0
 24
10.0
 15
10.0
 25
10.0
 16
0.0
 26
0.0
 36
1.0
 17
0.0
 27
0.0
 37
0.0
 40
297.0
 41
1.92798353909465
 42
50.0
 43
0.0
 44
0.0
 50
0.0
 51
0.0
 71
0
 72
100
 73
1
 74
3
 75
1
 76
1
 77
0
 78
0
281
0
 65
1
110
0.0
120
0.0
130
0.0
111
1.0
121
0.0
131
0.0
112
0.0
122
1.0
132
0.0
 79
0
146
0.0
  0
ENDTAB
  0
TABLE
  2
LTYPE
  5
5
100
AcDbSymbolTable
 70
47
  0
LTYPE
  5
16
100
AcDbSymbolTableRecord
100
AcDbLinetypeTableRecord
  2
Continuous
 70
0
  3
Solid line
 72
65
 73
0
 40
0.0
  0
LTYPE
  5
31
100
AcDbSymbolTableRecord
100
AcDbLinetypeTableRecord
  2
ACAD_ISO15W100
 70
0
  3
ISO double-dash triple-dot __ __ . . . __ __ . .
 72
65
 73
10
 40
39.0
 49
12.0
 74
0
 49
-3.0
 74
0
 49
12.0
 74
0
 49
-3.0
 74
0
 49
0.0
 74
0
 49
-3.0
 74
0
 49
0.0
 74
0
 49
-3.0
 74
0
 49
0.0
 74
0
 49
-3.0
 74
0
  0
LTYPE
  5
32
100
AcDbSymbolTableRecord
100
AcDbLinetypeTableRecord
  2
DIVIDE
 70
0
  3
Divide ____ . . ____ . . ____ . . ____ . . ____
 72
65
 73
6
 40
31.75
 49
12.6999999999999993
 74
0
 49
-6.3499999999999996
 74
0
 49
0.0
 74
0
 49
-6.3499999999999996
 74
0
 49
0.0
 74
0
 49
-6.3499999999999996
 74
0
  0
LTYPE
  5
33
100
AcDbSymbolTableRecord
100
AcDbLinetypeTableRecord
  2
ACAD_ISO10W100
 70
0
  3
ISO dash dot __ . __ . __ . __ . __ . __ . __ . 
 72
65
 73
4
 40
18.0
 49
12.0
 74
0
 49
-3.0
 74
0
 49
0.0
 74
0
 49
-3.0
 74
0
  0
LTYPE
  5
34
100
AcDbSymbolTableRecord
100
AcDbLinetypeTableRecord
  2
DOTTINY
 70
0
  3
Dot (.15x) .....................................
 72
65
 73
2
 40
0.9525
 49
0.1
 74
0
 49
-0.8525
 74
0
  0
LTYPE
  5
35
100
AcDbSymbolTableRecord
100
AcDbLinetypeTableRecord
  2
ACAD_ISO04W100
 70
0
  3
ISO long-dash dot ____ . ____ . ____ . ____ . _
 72
65
 73
4
 40
30.0
 49
24.0
 74
0
 49
-3.0
 74
0
 49
0.0
 74
0
 49
-3.0
 74
0
  0
LTYPE
  5
14
100
AcDbSymbolTableRecord
100
AcDbLinetypeTableRecord
  2
ByBlock
 70
0
  3

 72
65
 73
0
 40
0.0
  0
LTYPE
  5
36
100
AcDbSymbolTableRecord
100
AcDbLinetypeTableRecord
  2
CENTER2
 70
0
  3
Center (.5x) ___ _ ___ _ ___ _ ___ _ ___ _ ___
 72
65
 73
4
 40
28.5750000000000028
 49
19.0500000000000007
 74
0
 49
-3.1749999999999998
 74
0
 49
3.1749999999999998
 74
0
 49
-3.1749999999999998
 74
0
  0
LTYPE
  5
37
100
AcDbSymbolTableRecord
100
AcDbLinetypeTableRecord
  2
ACAD_ISO11W100
 70
0
  3
ISO double-dash dot __ __ . __ __ . __ __ . __ _
 72
65
 73
6
 40
33.0
 49
12.0
 74
0
 49
-3.0
 74
0
 49
12.0
 74
0
 49
-3.0
 74
0
 49
0.0
 74
0
 49
-3.0
 74
0
  0
LTYPE
  5
38
100
AcDbSymbolTableRecord
100
AcDbLinetypeTableRecord
  2
HIDDEN2
 70
0
  3
Hidden (.5x) _ _ _ _ _ _ _ _ _ _ _ _ _ _ _ _ _ 
 72
65
 73
2
 40
4.7624999999999993
 49
3.1749999999999998
 74
0
 49
-1.5874999999999999
 74
0
  0
LTYPE
  5
39
100
AcDbSymbolTableRecord
100
AcDbLinetypeTableRecord
  2
BORDERX2
 70
0
  3
Border (2x) ____  ____  .  ____  ____  .  ___
 72
65
 73
6
 40
88.8999999999999915
 49
25.3999999999999986
 74
0
 49
-12.6999999999999993
 74
0
 49
25.3999999999999986
 74
0
 49
-12.6999999999999993
 74
0
 49
0.0
 74
0
 49
-12.6999999999999993
 74
0
  0
LTYPE
  5
3A
100
AcDbSymbolTableRecord
100
AcDbLinetypeTableRecord
  2
BORDERTINY
 70
0
  3
Border (.15x) __.__.__.__.__.__.__.__.__.__.__.
 72
65
 73
6
 40
6.6674999999999995
 49
1.905
 74
0
 49
-0.9525
 74
0
 49
1.905
 74
0
 49
-0.9025
 74
0
 49
0.1
 74
0
 49
-0.9025
 74
0
  0
LTYPE
  5
3B
100
AcDbSymbolTableRecord
100
AcDbLinetypeTableRecord
  2
CENTERTINY
 70
0
  3
Center (.15x) ___ _ ___ _ ___ _ ___ _ ___ _ ___
 72
65
 73
4
 40
7.6199999999999992
 49
4.7625000000000002
 74
0
 49
-0.9525
 74
0
 49
0.9525
 74
0
 49
-0.9525
 74
0
  0
LTYPE
  5
3C
100
AcDbSymbolTableRecord
100
AcDbLinetypeTableRecord
  2
ACAD_ISO05W100
 70
0
  3
ISO long-dash double-dot ____ .. ____ .. ____ . 
 72
65
 73
6
 40
33.0
 49
24.0
 74
0
 49
-3.0
 74
0
 49
0.0
 74
0
 49
-3.0
 74
0
 49
0.0
 74
0
 49
-3.0
 74
0
  0
LTYPE
  5
3D
100
AcDbSymbolTableRecord
100
AcDbLinetypeTableRecord
  2
DASHDOTX2
 70
0
  3
Dash dot (2x) ____  .  ____  .  ____  .  ___
 72
65
 73
4
 40
50.7999999999999972
 49
25.3999999999999986
 74
0
 49
-12.6999999999999993
 74
0
 49
0.0
 74
0
 49
-12.6999999999999993
 74
0
  0
LTYPE
  5
3E
100
AcDbSymbolTableRecord
100
AcDbLinetypeTableRecord
  2
HIDDENX2
 70
0
  3
Hidden (2x) ____ ____ ____ ____ ____ ____ ____ 
 72
65
 73
2
 40
19.0499999999999972
 49
12.6999999999999993
 74
0
 49
-6.3499999999999996
 74
0
  0
LTYPE
  5
3F
100
AcDbSymbolTableRecord
100
AcDbLinetypeTableRecord
  2
CENTERX2
 70
0
  3
Center (2x) ________  __  ________  __  _____
 72
65
 73
4
 40
101.6000000000000085
 49
63.5
 74
0
 49
-12.6999999999999993
 74
0
 49
12.6999999999999993
 74
0
 49
-12.6999999999999993
 74
0
  0
LTYPE
  5
40
100
AcDbSymbolTableRecord
100
AcDbLinetypeTableRecord
  2
BORDER2
 70
0
  3
Border (.5x) __.__.__.__.__.__.__.__.__.__.__.
 72
65
 73
6
 40
22.2249999999999979
 49
6.3499999999999996
 74
0
 49
-3.1749999999999998
 74
0
 49
6.3499999999999996
 74
0
 49
-3.1749999999999998
 74
0
 49
0.0
 74
0
 49
-3.1749999999999998
 74
0
  0
LTYPE
  5
41
100
AcDbSymbolTableRecord
100
AcDbLinetypeTableRecord
  2
DASHDOT2
 70
0
  3
Dash dot (.5x) _._._._._._._._._._._._._._._.
 72
65
 73
4
 40
12.6999999999999993
 49
6.3499999999999996
 74
0
 49
-3.1749999999999998
 74
0
 49
0.0
 74
0
 49
-3.1749999999999998
 74
0
  0
LTYPE
  5
42
100
AcDbSymbolTableRecord
100
AcDbLinetypeTableRecord
  2
ACAD_ISO12W100
 70
0
  3
ISO dash double-dot __ . . __ . . __ . . __ . . 
 72
65
 73
6
 40
21.0
 49
12.0
 74
0
 49
-3.0
 74
0
 49
0.0
 74
0
 49
-3.0
 74
0
 49
0.0
 74
0
 49
-3.0
 74
0
  0
LTYPE
  5
43
100
AcDbSymbolTableRecord
100
AcDbLinetypeTableRecord
  2
ACAD_ISO07W100
 70
0
  3
ISO dot . . . . . . . . . . . . . . . . . . . . 
 72
65
 73
2
 40
3.0
 49
0.0
 74
0
 49
-3.0
 74
0
  0
LTYPE
  5
44
100
AcDbSymbolTableRecord
100
AcDbLinetypeTableRecord
  2
HIDDEN
 70
0
  3
Hidden __ __ __ __ __ __ __ __ __ __ __ __ __ __
 72
65
 73
2
 40
9.5249999999999986
 49
6.3499999999999996
 74
0
 49
-3.1749999999999998
 74
0
  0
LTYPE
  5
45
100
AcDbSymbolTableRecord
100
AcDbLinetypeTableRecord
  2
ACAD_ISO06W100
 70
0
  3
ISO long-dash triple-dot ____ ... ____ ... ____
 72
65
 73
8
 40
36.0
 49
24.0
 74
0
 49
-3.0
 74
0
 49
0.0
 74
0
 49
-3.0
 74
0
 49
0.0
 74
0
 49
-3.0
 74
0
 49
0.0
 74
0
 49
-3.0
 74
0
  0
LTYPE
  5
46
100
AcDbSymbolTableRecord
100
AcDbLinetypeTableRecord
  2
CENTER
 70
0
  3
Center ____ _ ____ _ ____ _ ____ _ ____ _ ____
 72
65
 73
4
 40
50.8000000000000043
 49
31.75
 74
0
 49
-6.3499999999999996
 74
0
 49
6.3499999999999996
 74
0
 49
-6.3499999999999996
 74
0
  0
LTYPE
  5
47
100
AcDbSymbolTableRecord
100
AcDbLinetypeTableRecord
  2
DOTX2
 70
0
  3
Dot (2x) .  .  .  .  .  .  .  .  .  .  .  .  .  .
 72
65
 73
2
 40
12.6999999999999993
 49
0.0
 74
0
 49
-12.6999999999999993
 74
0
  0
LTYPE
  5
48
100
AcDbSymbolTableRecord
100
AcDbLinetypeTableRecord
  2
PHANTOM
 70
0
  3
Phantom ______  __  __  ______  __  __  ______ 
 72
65
 73
6
 40
63.5000000000000071
 49
31.75
 74
0
 49
-6.3499999999999996
 74
0
 49
6.3499999999999996
 74
0
 49
-6.3499999999999996
 74
0
 49
6.3499999999999996
 74
0
 49
-6.3499999999999996
 74
0
  0
LTYPE
  5
49
100
AcDbSymbolTableRecord
100
AcDbLinetypeTableRecord
  2
ACAD_ISO08W100
 70
0
  3
ISO long-dash short-dash ____ __ ____ __ ____ _
 72
65
 73
4
 40
36.0
 49
24.0
 74
0
 49
-3.0
 74
0
 49
6.0
 74
0
 49
-3.0
 74
0
  0
LTYPE
  5
4A
100
AcDbSymbolTableRecord
100
AcDbLinetypeTableRecord
  2
DASHEDX2
 70
0
  3
Dashed (2x) ____  ____  ____  ____  ____  ___
 72
65
 73
2
 40
38.0999999999999943
 49
25.3999999999999986
 74
0
 49
-12.6999999999999993
 74
0
  0
LTYPE
  5
4B
100
AcDbSymbolTableRecord
100
AcDbLinetypeTableRecord
  2
ACAD_ISO02W100
 70
0
  3
ISO dash __ __ __ __ __ __ __ __ __ __ __ __ __
 72
65
 73
2
 40
15.0
 49
12.0
 74
0
 49
-3.0
 74
0
  0
LTYPE
  5
4C
100
AcDbSymbolTableRecord
100
AcDbLinetypeTableRecord
  2
PHANTOM2
 70
0
  3
Phantom (.5x) ___ _ _ ___ _ _ ___ _ _ ___ _ _
 72
65
 73
6
 40
31.7500000000000036
 49
15.875
 74
0
 49
-3.1749999999999998
 74
0
 49
3.1749999999999998
 74
0
 49
-3.1749999999999998
 74
0
 49
3.1749999999999998
 74
0
 49
-3.1749999999999998
 74
0
  0
LTYPE
  5
4D
100
AcDbSymbolTableRecord
100
AcDbLinetypeTableRecord
  2
DASHED2
 70
0
  3
Dashed (.5x) _ _ _ _ _ _ _ _ _ _ _ _ _ _ _ _ _ 
 72
65
 73
2
 40
9.5249999999999986
 49
6.3499999999999996
 74
0
 49
-3.1749999999999998
 74
0
  0
LTYPE
  5
4E
100
AcDbSymbolTableRecord
100
AcDbLinetypeTableRecord
  2
DASHDOTTINY
 70
0
  3
Dash dot (.15x) _._._._._._._._._._._._._._._.
 72
65
 73
4
 40
3.8100000000000001
 49
1.905
 74
0
 49
-0.9025
 74
0
 49
0.1
 74
0
 49
-0.9025
 74
0
  0
LTYPE
  5
4F
100
AcDbSymbolTableRecord
100
AcDbLinetypeTableRecord
  2
ACAD_ISO09W100
 70
0
  3
ISO long-dash double-short-dash ____ __ __ ____
 72
65
 73
6
 40
45.0
 49
24.0
 74
0
 49
-3.0
 74
0
 49
6.0
 74
0
 49
-3.0
 74
0
 49
6.0
 74
0
 49
-3.0
 74
0
  0
LTYPE
  5
50
100
AcDbSymbolTableRecord
100
AcDbLinetypeTableRecord
  2
ACAD_ISO13W100
 70
0
  3
ISO double-dash double-dot __ __ . . __ __ . . _
 72
65
 73
8
 40
36.0
 49
12.0
 74
0
 49
-3.0
 74
0
 49
12.0
 74
0
 49
-3.0
 74
0
 49
0.0
 74
0
 49
-3.0
 74
0
 49
0.0
 74
0
 49
-3.0
 74
0
  0
LTYPE
  5
51
100
AcDbSymbolTableRecord
100
AcDbLinetypeTableRecord
  2
DIVIDETINY
 70
0
  3
Divide (.15x) __..__..__..__..__..__..__..__.._
 72
65
 73
6
 40
4.7625000000000002
 49
1.905
 74
0
 49
-0.9025
 74
0
 49
0.1
 74
0
 49
-0.8524999999999999
 74
0
 49
0.1
 74
0
 49
-0.9025
 74
0
  0
LTYPE
  5
52
100
AcDbSymbolTableRecord
100
AcDbLinetypeTableRecord
  2
DOT2
 70
0
  3
Dot (.5x) ........................................
 72
65
 73
2
 40
3.1749999999999998
 49
0.0
 74
0
 49
-3.1749999999999998
 74
0
  0
LTYPE
  5
53
100
AcDbSymbolTableRecord
100
AcDbLinetypeTableRecord
  2
DASHED
 70
0
  3
Dashed __ __ __ __ __ __ __ __ __ __ __ __ __ _
 72
65
 73
2
 40
19.0499999999999972
 49
12.6999999999999993
 74
0
 49
-6.3499999999999996
 74
0
  0
LTYPE
  5
54
100
AcDbSymbolTableRecord
100
AcDbLinetypeTableRecord
  2
ACAD_ISO14W100
 70
0
  3
ISO dash triple-dot __ . . . __ . . . __ . . . _
 72
65
 73
8
 40
24.0
 49
12.0
 74
0
 49
-3.0
 74
0
 49
0.0
 74
0
 49
-3.0
 74
0
 49
0.0
 74
0
 49
-3.0
 74
0
 49
0.0
 74
0
 49
-3.0
 74
0
  0
LTYPE
  5
55
100
AcDbSymbolTableRecord
100
AcDbLinetypeTableRecord
  2
PHANTOMX2
 70
0
  3
Phantom (2x) ____________    ____    ____   _
 72
65
 73
6
 40
127.0000000000000142
 49
63.5
 74
0
 49
-12.6999999999999993
 74
0
 49
12.6999999999999993
 74
0
 49
-12.6999999999999993
 74
0
 49
12.6999999999999993
 74
0
 49
-12.6999999999999993
 74
0
  0
LTYPE
  5
56
100
AcDbSymbolTableRecord
100
AcDbLinetypeTableRecord
  2
DIVIDEX2
 70
0
  3
Divide (2x) ________  .  .  ________  .  .  _
 72
65
 73
6
 40
63.5
 49
25.3999999999999986
 74
0
 49
-12.6999999999999993
 74
0
 49
0.0
 74
0
 49
-12.6999999999999993
 74
0
 49
0.0
 74
0
 49
-12.6999999999999993
 74
0
  0
LTYPE
  5
57
100
AcDbSymbolTableRecord
100
AcDbLinetypeTableRecord
  2
BORDER
 70
0
  3
Border __ __ . __ __ . __ __ . __ __ . __ __ .
 72
65
 73
6
 40
44.4499999999999957
 49
12.6999999999999993
 74
0
 49
-6.3499999999999996
 74
0
 49
12.6999999999999993
 74
0
 49
-6.3499999999999996
 74
0
 49
0.0
 74
0
 49
-6.3499999999999996
 74
0
  0
LTYPE
  5
58
100
AcDbSymbolTableRecord
100
AcDbLinetypeTableRecord
  2
DIVIDE2
 70
0
  3
Divide (.5x) __..__..__..__..__..__..__..__.._
 72
65
 73
6
 40
15.875
 49
6.3499999999999996
 74
0
 49
-3.1749999999999998
 74
0
 49
0.0
 74
0
 49
-3.1749999999999998
 74
0
 49
0.0
 74
0
 49
-3.1749999999999998
 74
0
  0
LTYPE
  5
59
100
AcDbSymbolTableRecord
100
AcDbLinetypeTableRecord
  2
DOT
 70
0
  3
Dot . . . . . . . . . . . . . . . . . . . . . . . .
 72
65
 73
2
 40
6.3499999999999996
 49
0.0
 74
0
 49
-6.3499999999999996
 74
0
  0
LTYPE
  5
5A
100
AcDbSymbolTableRecord
100
AcDbLinetypeTableRecord
  2
DASHEDTINY
 70
0
  3
Dashed (.15x) _ _ _ _ _ _ _ _ _ _ _ _ _ _ _ _ _
 72
65
 73
2
 40
2.8574999999999999
 49
1.905
 74
0
 49
-0.9525
 74
0
  0
LTYPE
  5
5B
100
AcDbSymbolTableRecord
100
AcDbLinetypeTableRecord
  2
DASHDOT
 70
0
  3
Dash dot __ . __ . __ . __ . __ . __ . __ . __
 72
65
 73
4
 40
25.3999999999999986
 49
12.6999999999999993
 74
0
 49
-6.3499999999999996
 74
0
 49
0.0
 74
0
 49
-6.3499999999999996
 74
0
  0
LTYPE
  5
5C
100
AcDbSymbolTableRecord
100
AcDbLinetypeTableRecord
  2
ACAD_ISO03W100
 70
0
  3
ISO dash space __    __    __    __    __    __
 72
65
 73
2
 40
30.0
 49
12.0
 74
0
 49
-18.0
 74
0
  0
LTYPE
  5
15
100
AcDbSymbolTableRecord
100
AcDbLinetypeTableRecord
  2
ByLayer
 70
0
  3

 72
65
 73
0
 40
0.0
  0
ENDTAB
  0
TABLE
  2
LAYER
  5
2
100
AcDbSymbolTable
 70
2
  0
LAYER
  5
5D
100
AcDbSymbolTableRecord
100
AcDbLayerTableRecord
  2
eixos
 70
0
 62
155
420
4153215
  6
DASHDOT
370
5
390
F
  0
LAYER
  5
10
100
AcDbSymbolTableRecord
100
AcDbLayerTableRecord
  2
0
 70
0
 62
7
420
16777215
  6
Continuous
370
15
390
F
  0
ENDTAB
  0
TABLE
  2
STYLE
  5
3
100
AcDbSymbolTable
 70
1
  0
STYLE
  5
5E
100
AcDbSymbolTableRecord
100
AcDbTextStyleTableRecord
  2
Standard
 70
0
 40
0.0
 41
1.0
 50
0.0
 71
0
 42
2.5
  3

  4

1001
ACAD
1000
txt
1071
0
  0
ENDTAB
  0
TABLE
  2
VIEW
  5
6
100
AcDbSymbolTable
 70
0
  0
ENDTAB
  0
TABLE
  2
UCS
  5
7
100
AcDbSymbolTable
 70
0
  0
ENDTAB
  0
TABLE
  2
APPID
  5
9
100
AcDbSymbolTable
 70
1
  0
APPID
  5
12
100
AcDbSymbolTableRecord
100
AcDbRegAppTableRecord
  2
ACAD
 70
0
  0
APPID
  5
5F
100
AcDbSymbolTableRecord
100
AcDbRegAppTableRecord
  2
QCAD
 70
0
  0
ENDTAB
  0
TABLE
  2
DIMSTYLE
  5
A
100
AcDbSymbolTable
 70
1
100
AcDbDimStyleTable
 71
0
  0
DIMSTYLE
105
27
100
AcDbSymbolTableRecord
100
AcDbDimStyleTableRecord
  2
Standard
 41
2.5
 42
0.625
 43
3.75
 44
1.25
 70
0
 73
0
 74
0
 77
1
 78
8
140
2.5
141
2.5
143
0.03937007874016
147
0.625
171
3
172
1
271
2
272
2
274
3
278
44
283
0
284
8
340
5E
  0
ENDTAB
  0
TABLE
  2
BLOCK_RECORD
  5
1
100
AcDbSymbolTable
 70
1
  0
BLOCK_RECORD
  5
1F
100
AcDbSymbolTableRecord
100
AcDbBlockTableRecord
  2
*Model_Space
340
22
  0
BLOCK_RECORD
  5
1B
100
AcDbSymbolTableRecord
100
AcDbBlockTableRecord
  2
*Paper_Space
340
1E
  0
BLOCK_RECORD
  5
23
100
AcDbSymbolTableRecord
100
AcDbBlockTableRecord
  2
*Paper_Space0
340
26
  0
ENDTAB
  0
ENDSEC
  0
SECTION
  2
BLOCKS
  0
BLOCK
  5
20
100
AcDbEntity
  8
0
100
AcDbBlockBegin
  2
*Model_Space
 70
0
 10
0.0
 20
0.0
 30
0.0
  3
*Model_Space
  1

  0
ENDBLK
  5
21
100
AcDbEntity
  8
0
100
AcDbBlockEnd
  0
BLOCK
  5
1C
100
AcDbEntity
 67
1
  8
0
100
AcDbBlockBegin
  2
*Paper_Space
 70
0
 10
0.0
 20
0.0
 30
0.0
  3
*Paper_Space
  1

  0
ENDBLK
  5
1D
100
AcDbEntity
 67
1
  8
0
100
AcDbBlockEnd
  0
BLOCK
  5
24
100
AcDbEntity
  8
0
100
AcDbBlockBegin
  2
*Paper_Space0
 70
0
 10
0.0
 20
0.0
 30
0.0
  3
*Paper_Space0
  1

  0
ENDBLK
  5
25
100
AcDbEntity
  8
0
100
AcDbBlockEnd
  0
ENDSEC
  0
SECTION
  2
ENTITIES
  0
LWPOLYLINE
  5
60
  8
0
 62
256
370
-1
 48
1.0
  6
ByLayer
100
AcDbEntity
100
AcDbPolyline
 90
2
 70
0
 10
8.8000000000000043
 20
8.4999999999999929
 30
0.0
 10
27.0158621958186416
 20
8.4999999999999929
 30
0.0
  0
LINE
  5
61
100
AcDbEntity
100
AcDbLine
  8
eixos
 62
256
370
-1
 48
1.0
  6
ByLayer
 10
0.0000000000000002
 20
12.1395836609182304
 30
0.0
 11
-0.0000000000000052
 21
-20.5245550417227705
 31
0.0
  0
LINE
  5
62
100
AcDbEntity
100
AcDbLine
  8
eixos
 62
256
370
-1
 48
1.0
  6
ByLayer
 10
33.51759424172959
 20
8.4999999999999929
 30
0.0
 11
-12.6194200784218697
 21
8.4999999999999982
 31
0.0
  0
LINE
  5
63
100
AcDbEntity
100
AcDbLine
  8
eixos
 62
256
370
-1
 48
1.0
  6
ByLayer
 10
33.51759424172959
 20
6.4999999999999929
 30
0.0
 11
-12.6194200784218697
 21
6.4999999999999982
 31
0.0
  0
LINE
  5
64
100
AcDbEntity
100
AcDbLine
  8
eixos
 62
256
370
-1
 48
1.0
  6
ByLayer
 10
33.51759424172959
 20
2.4999999999999929
 30
0.0
 11
-12.6194200784218697
 21
2.4999999999999978
 31
0.0
  0
LINE
  5
65
100
AcDbEntity
100
AcDbLine
  8
eixos
 62
256
370
-1
 48
1.0
  6
ByLayer
 10
2.0
 20
12.1395836609182304
 30
0.0
 11
1.9999999999999949
 21
-20.5245550417227705
 31
0.0
  0
LINE
  5
66
100
AcDbEntity
100
AcDbLine
  8
eixos
 62
256
370
-1
 48
1.0
  6
ByLayer
 10
7.5
 20
12.1395836609182304
 30
0.0
 11
7.4999999999999938
 21
-20.5245550417227705
 31
0.0
  0
LINE
  5
67
100
AcDbEntity
100
AcDbLine
  8
eixos
 62
256
370
-1
 48
1.0
  6
ByLayer
 10
10.0
 20
12.1395836609182304
 30
0.0
 11
9.9999999999999929
 21
-20.5245550417227705
 31
0.0
  0
LINE
  5
68
100
AcDbEntity
100
AcDbLine
  8
eixos
 62
256
370
-1
 48
1.0
  6
ByLayer
 10
14.0
 20
12.1395836609182304
 30
0.0
 11
13.9999999999999893
 21
-20.5245550417227705
 31
0.0
  0
LINE
  5
69
100
AcDbEntity
100
AcDbLine
  8
eixos
 62
256
370
-1
 48
1.0
  6
ByLayer
 10
17.0
 20
12.1395836609182304
 30
0.0
 11
16.9999999999999893
 21
-20.5245550417227705
 31
0.0
  0
LINE
  5
6A
100
AcDbEntity
100
AcDbLine
  8
eixos
 62
256
370
-1
 48
1.0
  6
ByLayer
 10
20.0
 20
12.1395836609182304
 30
0.0
 11
19.9999999999999893
 21
-20.5245550417227705
 31
0.0
  0
LINE
  5
6B
100
AcDbEntity
100
AcDbLine
  8
eixos
 62
256
370
-1
 48
1.0
  6
ByLayer
 10
23.0
 20
12.1395836609182304
 30
0.0
 11
22.9999999999999893
 21
-20.5245550417227705
 31
0.0
  0
LINE
  5
6C
100
AcDbEntity
100
AcDbLine
  8
eixos
 62
256
370
-1
 48
1.0
  6
ByLayer
 10
25.0
 20
12.1395836609182304
 30
0.0
 11
24.9999999999999893
 21
-20.5245550417227705
 31
0.0
  0
LINE
  5
6D
100
AcDbEntity
100
AcDbLine
  8
eixos
 62
256
370
-1
 48
1.0
  6
ByLayer
 10
33.51759424172959
 20
-0.0000000000000004
 30
0.0
 11
-12.6194200784218697
 21
0.0000000000000049
 31
0.0
  0
LINE
  5
6E
100
AcDbEntity
100
AcDbLine
  8
eixos
 62
256
370
-1
 48
1.0
  6
ByLayer
 10
30.0
 20
12.1395836609182304
 30
0.0
 11
30.0
 21
-20.5245550417227705
 31
0.0
  0
LWPOLYLINE
  5
6F
  8
0
 62
256
370
-1
 48
1.0
  6
ByLayer
100
AcDbEntity
100
AcDbPolyline
 90
4
 70
1
 10
2.0000000000000071
 20
8.1999999999999975
 30
0.0
 10
2.0000000000000071
 20
2.4999999999999791
 30
0.0
 10
29.6999999999999993
 20
2.4999999999999791
 30
0.0
 10
29.6999999999999993
 20
8.1999999999999975
 30
0.0
  0
LWPOLYLINE
  5
70
  8
0
 62
256
370
-1
 48
1.0
  6
ByLayer
100
AcDbEntity
100
AcDbPolyline
 90
4
 70
1
 10
23.0
 20
6.4999999999999947
 30
0.0
 10
23.0
 20
2.4999999999999951
 30
0.0
 10
20.0
 20
2.4999999999999951
 30
0.0
 10
20.0
 20
6.4999999999999947
 30
0.0
  0
LWPOLYLINE
  5
71
  8
0
 62
256
370
-1
 48
1.0
  6
ByLayer
100
AcDbEntity
100
AcDbPolyline
 90
4
 70
1
 10
20.0
 20
6.4999999999999947
 30
0.0
 10
20.0
 20
2.4999999999999951
 30
0.0
 10
17.0
 20
2.4999999999999951
 30
0.0
 10
17.0
 20
6.4999999999999947
 30
0.0
  0
LWPOLYLINE
  5
72
  8
0
 62
256
370
-1
 48
1.0
  6
ByLayer
100
AcDbEntity
100
AcDbPolyline
 90
4
 70
1
 10
17.0
 20
6.4999999999999947
 30
0.0
 10
17.0
 20
2.4999999999999951
 30
0.0
 10
14.0
 20
2.4999999999999951
 30
0.0
 10
14.0
 20
6.4999999999999947
 30
0.0
  0
LINE
  5
73
100
AcDbEntity
100
AcDbLine
  8
eixos
 62
256
370
-1
 48
1.0
  6
ByLayer
 10
12.0
 20
12.1395836609182304
 30
0.0
 11
11.9999999999999893
 21
-20.5245550417227705
 31
0.0
  0
LWPOLYLINE
  5
74
  8
0
 62
256
370
-1
 48
1.0
  6
ByLayer
100
AcDbEntity
100
AcDbPolyline
 90
4
 70
1
 10
12.0
 20
2.499999999999996
 30
0.0
 10
12.0
 20
6.4999999999999956
 30
0.0
 10
10.0000000000000107
 20
6.4999999999999956
 30
0.0
 10
10.0000000000000107
 20
2.499999999999996
 30
0.0
  0
LINE
  5
75
100
AcDbEntity
100
AcDbLine
  8
eixos
 62
256
370
-1
 48
1.0
  6
ByLayer
 10
26.0
 20
12.1395836609182304
 30
0.0
 11
25.9999999999999893
 21
-20.5245550417227705
 31
0.0
  0
LWPOLYLINE
  5
76
  8
0
 62
256
370
-1
 48
1.0
  6
ByLayer
100
AcDbEntity
100
AcDbPolyline
 90
4
 70
1
 10
26.0
 20
8.4999999999999947
 30
0.0
 10
26.0
 20
8.2499999999999929
 30
0.0
 10
20.0000000000000107
 20
8.2499999999999929
 30
0.0
 10
20.0000000000000107
 20
8.4999999999999947
 30
0.0
  0
HATCH
  5
77
  8
0
 62
256
370
-1
 48
1.0
  6
ByLayer
100
AcDbEntity
100
AcDbHatch
 10
0.0
 20
0.0
 30
0.0
210
0.0
220
0.0
230
1.0
  2
SOLID
 70
1
 71
0
 91
1
 92
1
 93
4
 72
1
 10
26.0
 20
8.4999999999999947
 11
26.0
 21
8.2499999999999929
 72
1
 10
26.0
 20
8.2499999999999929
 11
20.0000000000000107
 21
8.2499999999999929
 72
1
 10
20.0000000000000107
 20
8.2499999999999929
 11
20.0000000000000107
 21
8.4999999999999947
 72
1
 10
20.0000000000000107
 20
8.4999999999999947
 11
26.0
 21
8.4999999999999947
 97
0
 75
0
 76
1
 98
0
1001
ACAD
1010
0.0
1020
0.0
1030
0
  0
LINE
  5
78
100
AcDbEntity
100
AcDbLine
  8
eixos
 62
256
370
-1
 48
1.0
  6
ByLayer
 10
9.0
 20
12.1395836609182304
 30
0.0
 11
8.9999999999999929
 21
-20.5245550417227705
 31
0.0
  0
LWPOLYLINE
  5
79
  8
0
 62
256
370
-1
 48
1.0
  6
ByLayer
100
AcDbEntity
100
AcDbPolyline
 90
4
 70
1
 10
8.9999999999999964
 20
0.2499999999999995
 30
0.0
 10
8.9999999999999964
 20
0.0000000000000016
 30
0.0
 10
13.0
 20
0.0000000000000016
 30
0.0
 10
13.0
 20
0.2499999999999995
 30
0.0
  0
CIRCLE
  5
7A
100
AcDbEntity
100
AcDbCircle
  8
0
 62
256
370
-1
 48
1.0
  6
ByLayer
 10
10.0000000000000107
 20
8.274999999999995
 30
0.0
 40
0.1250000000000018
  0
HATCH
  5
7B
  8
0
 62
256
370
-1
 48
1.0
  6
ByLayer
100
AcDbEntity
100
AcDbHatch
 10
0.0
 20
0.0
 30
0.0
210
0.0
220
0.0
230
1.0
  2
SOLID
 70
1
 71
0
 91
1
 92
1
 93
1
 72
2
 10
10.0000000000000107
 20
8.274999999999995
 40
0.1250000000000018
 50
0.0
 51
360.0
 73
1
 97
0
 75
0
 76
1
 98
0
1001
ACAD
1010
0.0
1020
0.0
1030
0
  0
CIRCLE
  5
7C
100
AcDbEntity
100
AcDbCircle
  8
0
 62
256
370
-1
 48
1.0
  6
ByLayer
 10
21.0
 20
0.2250000000000036
 30
0.0
 40
0.1250000000000018
  0
HATCH
  5
7D
  8
0
 62
256
370
-1
 48
1.0
  6
ByLayer
100
AcDbEntity
100
AcDbHatch
 10
0.0
 20
0.0
 30
0.0
210
0.0
220
0.0
230
1.0
  2
SOLID
 70
1
 71
0
 91
1
 92
1
 93
1
 72
2
 10
21.0
 20
0.2250000000000036
 40
0.1250000000000018
 50
0.0
 51
360.0
 73
1
 97
0
 75
0
 76
1
 98
0
1001
ACAD
1010
0.0
1020
0.0
1030
0
  0
LWPOLYLINE
  5
7E
  8
0
 62
256
370
-1
 48
1.0
  6
ByLayer
100
AcDbEntity
100
AcDbPolyline
 90
4
 70
1
 10
2.0500000000000078
 20
8.1499999999999968
 30
0.0
 10
2.0500000000000078
 20
2.549999999999979
 30
0.0
 10
29.6499999999999986
 20
2.549999999999979
 30
0.0
 10
29.6499999999999986
 20
8.1499999999999968
 30
0.0
  0
LWPOLYLINE
  5
7F
  8
0
 62
256
370
-1
 48
1.0
  6
ByLayer
100
AcDbEntity
100
AcDbPolyline
 90
4
 70
1
 10
8.2999999999999972
 20
6.4999999999999956
 30
0.0
 10
8.2999999999999972
 20
3.4999999999999969
 30
0.0
 10
8.899999999999995
 20
3.4999999999999969
 30
0.0
 10
8.899999999999995
 20
6.4999999999999956
 30
0.0
  0
LWPOLYLINE
  5
80
  8
0
 62
256
370
-1
 48
1.0
  6
ByLayer
100
AcDbEntity
100
AcDbPolyline
 90
3
 70
1
 10
14.1999999999999993
 20
6.4999999999999947
 30
0.0
 10
14.1999999999999993
 20
5.6999999999999948
 30
0.0
 10
15.0
 20
6.4999999999999947
 30
0.0
  0
LWPOLYLINE
  5
81
  8
0
 62
256
370
-1
 48
1.0
  6
ByLayer
100
AcDbEntity
100
AcDbPolyline
 90
3
 70
1
 10
17.1999999999999993
 20
6.4999999999999947
 30
0.0
 10
17.1999999999999993
 20
5.6999999999999948
 30
0.0
 10
18.0
 20
6.4999999999999947
 30
0.0
  0
LWPOLYLINE
  5
82
  8
0
 62
256
370
-1
 48
1.0
  6
ByLayer
100
AcDbEntity
100
AcDbPolyline
 90
3
 70
1
 10
20.1999999999999993
 20
6.4999999999999947
 30
0.0
 10
20.1999999999999993
 20
5.6999999999999948
 30
0.0
 10
21.0
 20
6.4999999999999947
 30
0.0
  0
LWPOLYLINE
  5
83
  8
0
 62
256
370
-1
 48
1.0
  6
ByLayer
100
AcDbEntity
100
AcDbPolyline
 90
3
 70
1
 10
12.1999999999999993
 20
6.4999999999999947
 30
0.0
 10
12.1999999999999993
 20
5.6999999999999948
 30
0.0
 10
13.0
 20
6.4999999999999947
 30
0.0
  0
LINE
  5
84
100
AcDbEntity
100
AcDbLine
  8
eixos
 62
256
370
-1
 48
1.0
  6
ByLayer
 10
33.51759424172959
 20
5.0999999999999934
 30
0.0
 11
-12.6194200784218697
 21
5.0999999999999979
 31
0.0
  0
LWPOLYLINE
  5
85
  8
0
 62
256
370
-1
 48
1.0
  6
ByLayer
100
AcDbEntity
100
AcDbPolyline
 90
4
 70
1
 10
12.0
 20
6.4999999999999956
 30
0.0
 10
12.0
 20
5.0999999999999943
 30
0.0
 10
14.0
 20
5.0999999999999943
 30
0.0
 10
14.0
 20
6.4999999999999956
 30
0.0
  0
LWPOLYLINE
  5
86
  8
0
 62
256
370
-1
 48
1.0
  6
ByLayer
100
AcDbEntity
100
AcDbPolyline
 90
4
 70
1
 10
14.0
 20
5.0999999999999943
 30
0.0
 10
14.0
 20
2.499999999999996
 30
0.0
 10
12.0
 20
2.499999999999996
 30
0.0
 10
12.0
 20
5.0999999999999943
 30
0.0
  0
LWPOLYLINE
  5
87
  8
0
 62
256
370
-1
 48
1.0
  6
ByLayer
100
AcDbEntity
100
AcDbPolyline
 90
3
 70
1
 10
14.0
 20
4.8999999999999941
 30
0.0
 10
13.1999999999999993
 20
4.8999999999999941
 30
0.0
 10
14.0
 20
4.0999999999999934
 30
0.0
  0
LWPOLYLINE
  5
88
  8
0
 62
256
370
-1
 48
1.0
  6
ByLayer
100
AcDbEntity
100
AcDbPolyline
 90
3
 70
1
 10
23.1999999999999993
 20
6.4999999999999947
 30
0.0
 10
23.1999999999999993
 20
5.6999999999999948
 30
0.0
 10
24.0
 20
6.4999999999999947
 30
0.0
  0
LWPOLYLINE
  5
89
  8
0
 62
256
370
-1
 48
1.0
  6
ByLayer
100
AcDbEntity
100
AcDbPolyline
 90
4
 70
1
 10
25.0
 20
4.4999999999999947
 30
0.0
 10
25.0
 20
6.4999999999999947
 30
0.0
 10
23.0
 20
6.4999999999999947
 30
0.0
 10
23.0
 20
4.4999999999999947
 30
0.0
  0
LWPOLYLINE
  5
8A
  8
0
 62
256
370
-1
 48
1.0
  6
ByLayer
100
AcDbEntity
100
AcDbPolyline
 90
5
 70
0
 10
25.0
 20
3.8999999999999941
 30
0.0
 10
25.0
 20
4.4999999999999947
 30
0.0
 10
23.0
 20
4.4999999999999947
 30
0.0
 10
23.0
 20
2.4999999999999938
 30
0.0
 10
25.0
 20
2.4999999999999938
 30
0.0
  0
LWPOLYLINE
  5
8B
  8
0
 62
256
370
-1
 48
1.0
  6
ByLayer
100
AcDbEntity
100
AcDbPolyline
 90
4
 70
1
 10
6.1422944437488836
 20
5.8349185521615983
 30
0.0
 10
6.1422944437488836
 20
4.0349185521615976
 30
0.0
 10
6.9422944437488834
 20
4.0349185521615976
 30
0.0
 10
6.9422944437488834
 20
5.8349185521615983
 30
0.0
  0
CIRCLE
  5
8C
100
AcDbEntity
100
AcDbCircle
  8
0
 62
256
370
-1
 48
1.0
  6
ByLayer
 10
5.8750057522981933
 20
4.9349185521615979
 30
0.0
 40
0.2
  0
CIRCLE
  5
8D
100
AcDbEntity
100
AcDbCircle
  8
0
 62
256
370
-1
 48
1.0
  6
ByLayer
 10
6.5422944437488839
 20
6.0932354180855297
 30
0.0
 40
0.2
  0
CIRCLE
  5
8E
100
AcDbEntity
100
AcDbCircle
  8
0
 62
256
370
-1
 48
1.0
  6
ByLayer
 10
6.5422944437488839
 20
3.7766016862376661
 30
0.0
 40
0.2
  0
CIRCLE
  5
8F
100
AcDbEntity
100
AcDbCircle
  8
0
 62
256
370
-1
 48
1.0
  6
ByLayer
 10
7.2095831351995736
 20
4.9349185521615979
 30
0.0
 40
0.2
  0
CIRCLE
  5
90
100
AcDbEntity
100
AcDbCircle
  8
0
 62
256
370
-1
 48
1.0
  6
ByLayer
 10
5.8750057522981933
 20
5.5349185521615976
 30
0.0
 40
0.2
  0
CIRCLE
  5
91
100
AcDbEntity
100
AcDbCircle
  8
0
 62
256
370
-1
 48
1.0
  6
ByLayer
 10
7.2095831351995736
 20
5.5349185521615976
 30
0.0
 40
0.2
  0
CIRCLE
  5
92
100
AcDbEntity
100
AcDbCircle
  8
0
 62
256
370
-1
 48
1.0
  6
ByLayer
 10
5.8750057522981933
 20
4.3349185521615983
 30
0.0
 40
0.2
  0
CIRCLE
  5
93
100
AcDbEntity
100
AcDbCircle
  8
0
 62
256
370
-1
 48
1.0
  6
ByLayer
 10
7.2095831351995736
 20
4.3349185521615983
 30
0.0
 40
0.2
  0
LWPOLYLINE
  5
94
  8
0
 62
256
370
-1
 48
1.0
  6
ByLayer
100
AcDbEntity
100
AcDbPolyline
 90
4
 70
1
 10
2.411693343899822
 20
7.0961329758448546
 30
0.0
 10
2.411693343899822
 20
7.7961329758448557
 30
0.0
 10
3.1116933438998231
 20
7.7961329758448557
 30
0.0
 10
3.1116933438998231
 20
7.0961329758448546
 30
0.0
  0
LWPOLYLINE
  5
95
  8
0
 62
256
370
-1
 48
1.0
  6
ByLayer
100
AcDbEntity
100
AcDbPolyline
 90
4
 70
1
 10
3.1116933438998231
 20
7.0961329758448546
 30
0.0
 10
3.1116933438998231
 20
7.7961329758448557
 30
0.0
 10
3.811693343899822
 20
7.7961329758448557
 30
0.0
 10
3.811693343899822
 20
7.0961329758448546
 30
0.0
  0
LWPOLYLINE
  5
96
  8
0
 62
256
370
-1
 48
1.0
  6
ByLayer
100
AcDbEntity
100
AcDbPolyline
 90
4
 70
1
 10
3.811693343899822
 20
7.0961329758448546
 30
0.0
 10
3.811693343899822
 20
7.7961329758448557
 30
0.0
 10
4.5116933438998226
 20
7.7961329758448557
 30
0.0
 10
4.5116933438998226
 20
7.0961329758448546
 30
0.0
  0
LWPOLYLINE
  5
97
  8
0
 62
256
370
-1
 48
1.0
  6
ByLayer
100
AcDbEntity
100
AcDbPolyline
 90
4
 70
1
 10
2.411693343899822
 20
6.3961329758448553
 30
0.0
 10
2.411693343899822
 20
7.0961329758448546
 30
0.0
 10
3.1116933438998231
 20
7.0961329758448546
 30
0.0
 10
3.1116933438998231
 20
6.3961329758448553
 30
0.0
  0
LWPOLYLINE
  5
98
  8
0
 62
256
370
-1
 48
1.0
  6
ByLayer
100
AcDbEntity
100
AcDbPolyline
 90
4
 70
1
 10
2.411693343899822
 20
5.6961329758448551
 30
0.0
 10
2.411693343899822
 20
6.3961329758448553
 30
0.0
 10
3.1116933438998231
 20
6.3961329758448553
 30
0.0
 10
3.1116933438998231
 20
5.6961329758448551
 30
0.0
  0
LWPOLYLINE
  5
99
  8
0
 62
256
370
-1
 48
1.0
  6
ByLayer
100
AcDbEntity
100
AcDbPolyline
 90
4
 70
1
 10
2.411693343899822
 20
4.9961329758448549
 30
0.0
 10
2.411693343899822
 20
5.6961329758448551
 30
0.0
 10
3.1116933438998231
 20
5.6961329758448551
 30
0.0
 10
3.1116933438998231
 20
4.9961329758448549
 30
0.0
  0
LWPOLYLINE
  5
9A
  8
0
 62
256
370
-1
 48
1.0
  6
ByLayer
100
AcDbEntity
100
AcDbPolyline
 90
4
 70
1
 10
3.9449643079455061
 20
4.5580555575460888
 30
0.0
 10
3.9449643079455061
 20
5.9580555575460892
 30
0.0
 10
4.6449643079455054
 20
5.9580555575460892
 30
0.0
 10
4.6449643079455054
 20
4.5580555575460888
 30
0.0
  0
LWPOLYLINE
  5
9B
  8
0
 62
256
370
-1
 48
1.0
  6
ByLayer
100
AcDbEntity
100
AcDbPolyline
 90
4
 70
1
 10
2.411693343899822
 20
2.8878854002820411
 30
0.0
 10
2.411693343899822
 20
3.5878854002820408
 30
0.0
 10
3.1116933438998222
 20
3.5878854002820408
 30
0.0
 10
3.1116933438998222
 20
2.8878854002820411
 30
0.0
  0
LWPOLYLINE
  5
9C
  8
0
 62
256
370
-1
 48
1.0
  6
ByLayer
100
AcDbEntity
100
AcDbPolyline
 90
4
 70
1
 10
3.1116933438998222
 20
2.8878854002820411
 30
0.0
 10
3.1116933438998222
 20
3.5878854002820408
 30
0.0
 10
3.811693343899822
 20
3.5878854002820408
 30
0.0
 10
3.811693343899822
 20
2.8878854002820411
 30
0.0
  0
LWPOLYLINE
  5
9D
  8
0
 62
256
370
-1
 48
1.0
  6
ByLayer
100
AcDbEntity
100
AcDbPolyline
 90
4
 70
1
 10
3.811693343899822
 20
2.8878854002820411
 30
0.0
 10
3.811693343899822
 20
3.5878854002820408
 30
0.0
 10
4.5116933438998226
 20
3.5878854002820408
 30
0.0
 10
4.5116933438998226
 20
2.8878854002820411
 30
0.0
  0
LWPOLYLINE
  5
9E
  8
0
 62
256
370
-1
 48
1.0
  6
ByLayer
100
AcDbEntity
100
AcDbPolyline
 90
4
 70
1
 10
2.411693343899822
 20
3.5878854002820408
 30
0.0
 10
2.411693343899822
 20
4.2878854002820406
 30
0.0
 10
3.1116933438998222
 20
4.2878854002820406
 30
0.0
 10
3.1116933438998222
 20
3.5878854002820408
 30
0.0
  0
LWPOLYLINE
  5
9F
  8
0
 62
256
370
-1
 48
1.0
  6
ByLayer
100
AcDbEntity
100
AcDbPolyline
 90
4
 70
1
 10
28.6652062318304708
 20
6.9867663550244918
 30
0.0
 10
29.3652062318304701
 20
6.9867663550244847
 30
0.0
 10
29.3652062318304701
 20
6.2867663550244819
 30
0.0
 10
28.6652062318304708
 20
6.286766355024489
 30
0.0
  0
LWPOLYLINE
  5
A0
  8
0
 62
256
370
-1
 48
1.0
  6
ByLayer
100
AcDbEntity
100
AcDbPolyline
 90
4
 70
1
 10
28.6652062318304708
 20
6.286766355024489
 30
0.0
 10
29.3652062318304701
 20
6.2867663550244819
 30
0.0
 10
29.3652062318304701
 20
5.5867663550244862
 30
0.0
 10
28.6652062318304708
 20
5.5867663550244933
 30
0.0
  0
LWPOLYLINE
  5
A1
  8
0
 62
256
370
-1
 48
1.0
  6
ByLayer
100
AcDbEntity
100
AcDbPolyline
 90
4
 70
1
 10
28.6652062318304708
 20
5.5867663550244933
 30
0.0
 10
29.3652062318304701
 20
5.5867663550244862
 30
0.0
 10
29.3652062318304701
 20
4.8867663550244833
 30
0.0
 10
28.6652062318304708
 20
4.8867663550244904
 30
0.0
  0
LWPOLYLINE
  5
A2
  8
0
 62
256
370
-1
 48
1.0
  6
ByLayer
100
AcDbEntity
100
AcDbPolyline
 90
4
 70
1
 10
27.9652062318304786
 20
6.9867663550244918
 30
0.0
 10
28.6652062318304708
 20
6.9867663550244918
 30
0.0
 10
28.6652062318304708
 20
6.286766355024489
 30
0.0
 10
27.9652062318304786
 20
6.286766355024489
 30
0.0
  0
LWPOLYLINE
  5
A3
  8
0
 62
256
370
-1
 48
1.0
  6
ByLayer
100
AcDbEntity
100
AcDbPolyline
 90
4
 70
1
 10
27.2652062318304687
 20
6.9867663550244918
 30
0.0
 10
27.9652062318304786
 20
6.9867663550244918
 30
0.0
 10
27.9652062318304786
 20
6.286766355024489
 30
0.0
 10
27.2652062318304687
 20
6.286766355024489
 30
0.0
  0
LWPOLYLINE
  5
A4
  8
0
 62
256
370
-1
 48
1.0
  6
ByLayer
100
AcDbEntity
100
AcDbPolyline
 90
4
 70
1
 10
26.56520623183048
 20
6.9867663550244918
 30
0.0
 10
27.2652062318304687
 20
6.9867663550244918
 30
0.0
 10
27.2652062318304687
 20
6.286766355024489
 30
0.0
 10
26.56520623183048
 20
6.286766355024489
 30
0.0
  0
LWPOLYLINE
  5
A5
  8
0
 62
256
370
-1
 48
1.0
  6
ByLayer
100
AcDbEntity
100
AcDbPolyline
 90
4
 70
1
 10
26.5539676492165384
 20
5.5462864422146394
 30
0.0
 10
27.9539676492165405
 20
5.5462864422146394
 30
0.0
 10
27.9539676492165405
 20
4.8462864422146366
 30
0.0
 10
26.5539676492165384
 20
4.8462864422146366
 30
0.0
  0
LWPOLYLINE
  5
A6
  8
0
 62
256
370
-1
 48
1.0
  6
ByLayer
100
AcDbEntity
100
AcDbPolyline
 90
4
 70
1
 10
28.6652062318304708
 20
4.8867663550244904
 30
0.0
 10
29.3652062318304701
 20
4.8867663550244833
 30
0.0
 10
29.3652062318304701
 20
4.1867663550244796
 30
0.0
 10
28.6652062318304708
 20
4.1867663550244876
 30
0.0
  0
LWPOLYLINE
  5
A7
  8
0
 62
256
370
-1
 48
1.0
  6
ByLayer
100
AcDbEntity
100
AcDbPolyline
 90
4
 70
1
 10
27.6550608793015691
 20
3.6369643933801101
 30
0.0
 10
28.3550608793015684
 20
3.636964393380103
 30
0.0
 10
28.3550608793015684
 20
2.9369643933801002
 30
0.0
 10
27.6550608793015691
 20
2.9369643933801068
 30
0.0
  0
LWPOLYLINE
  5
A8
  8
0
 62
256
370
-1
 48
1.0
  6
ByLayer
100
AcDbEntity
100
AcDbPolyline
 90
4
 70
1
 10
26.067030237968531
 20
3.869693021851329
 30
0.0
 10
26.767030237968541
 20
3.8696930218513219
 30
0.0
 10
26.767030237968541
 20
3.16969302185132
 30
0.0
 10
26.067030237968531
 20
3.1696930218513271
 30
0.0
  0
LWPOLYLINE
  5
A9
  8
0
 62
256
370
-1
 48
1.0
  6
ByLayer
100
AcDbEntity
100
AcDbPolyline
 90
4
 70
1
 10
23.0
 20
4.4999999999999947
 30
0.0
 10
23.6999999999999993
 20
4.4999999999999876
 30
0.0
 10
23.6999999999999993
 20
3.7999999999999852
 30
0.0
 10
23.0
 20
3.7999999999999918
 30
0.0
  0
LWPOLYLINE
  5
AA
  8
0
 62
256
370
-1
 48
1.0
  6
ByLayer
100
AcDbEntity
100
AcDbPolyline
 90
4
 70
1
 10
23.6999999999999993
 20
4.4999999999999876
 30
0.0
 10
24.4000000000000092
 20
4.4999999999999796
 30
0.0
 10
24.4000000000000092
 20
3.7999999999999781
 30
0.0
 10
23.6999999999999993
 20
3.7999999999999852
 30
0.0
  0
LWPOLYLINE
  5
AB
  8
0
 62
256
370
-1
 48
1.0
  6
ByLayer
100
AcDbEntity
100
AcDbPolyline
 90
4
 70
1
 10
23.0
 20
3.7999999999999918
 30
0.0
 10
23.6999999999999993
 20
3.7999999999999852
 30
0.0
 10
23.6999999999999993
 20
3.0999999999999819
 30
0.0
 10
23.0
 20
3.099999999999989
 30
0.0
  0
LWPOLYLINE
  5
AC
  8
0
 62
256
370
-1
 48
1.0
  6
ByLayer
100
AcDbEntity
100
AcDbPolyline
 90
4
 70
1
 10
15.0
 20
4.7293719098535512
 30
0.0
 10
17.0
 20
4.7293719098535494
 30
0.0
 10
17.0
 20
3.329371909853553
 30
0.0
 10
15.0
 20
3.329371909853553
 30
0.0
  0
LWPOLYLINE
  5
AD
  8
0
 62
256
370
-1
 48
1.0
  6
ByLayer
100
AcDbEntity
100
AcDbPolyline
 90
4
 70
1
 10
16.878196695310951
 20
4.5439994503004169
 30
0.0
 10
16.6146493204624086
 20
4.5439994503004169
 30
0.0
 10
16.6146493204624086
 20
4.1010155649167039
 30
0.0
 10
16.878196695310951
 20
4.1010155649167039
 30
0.0
  0
LWPOLYLINE
  5
AE
  8
0
 62
256
370
-1
 48
1.0
  6
ByLayer
100
AcDbEntity
100
AcDbPolyline
 90
4
 70
1
 10
16.878196695310951
 20
3.5147443694066869
 30
0.0
 10
16.6146493204624086
 20
3.5147443694066869
 30
0.0
 10
16.6146493204624086
 20
3.9577282547903998
 30
0.0
 10
16.878196695310951
 20
3.9577282547903998
 30
0.0
  0
LWPOLYLINE
  5
AF
  8
0
 62
256
370
-1
 48
1.0
  6
ByLayer
100
AcDbEntity
100
AcDbPolyline
 90
4
 70
1
 10
18.9999999999999893
 20
4.7293719098535512
 30
0.0
 10
16.9999999999999893
 20
4.7293719098535494
 30
0.0
 10
16.9999999999999893
 20
3.329371909853553
 30
0.0
 10
18.9999999999999893
 20
3.329371909853553
 30
0.0
  0
LWPOLYLINE
  5
B0
  8
0
 62
256
370
-1
 48
1.0
  6
ByLayer
100
AcDbEntity
100
AcDbPolyline
 90
4
 70
1
 10
17.121803304689049
 20
4.5439994503004169
 30
0.0
 10
17.3853506795375807
 20
4.5439994503004169
 30
0.0
 10
17.3853506795375807
 20
4.1010155649167039
 30
0.0
 10
17.121803304689049
 20
4.1010155649167039
 30
0.0
  0
LWPOLYLINE
  5
B1
  8
0
 62
256
370
-1
 48
1.0
  6
ByLayer
100
AcDbEntity
100
AcDbPolyline
 90
4
 70
1
 10
17.121803304689049
 20
3.5147443694066869
 30
0.0
 10
17.3853506795375807
 20
3.5147443694066869
 30
0.0
 10
17.3853506795375807
 20
3.9577282547903998
 30
0.0
 10
17.121803304689049
 20
3.9577282547903998
 30
0.0
  0
LWPOLYLINE
  5
B2
  8
0
 62
256
370
-1
 48
1.0
  6
ByLayer
100
AcDbEntity
100
AcDbPolyline
 90
4
 70
1
 10
21.9999999999999893
 20
4.7293719098535512
 30
0.0
 10
19.9999999999999893
 20
4.7293719098535494
 30
0.0
 10
19.9999999999999893
 20
3.329371909853553
 30
0.0
 10
21.9999999999999893
 20
3.329371909853553
 30
0.0
  0
LWPOLYLINE
  5
B3
  8
0
 62
256
370
-1
 48
1.0
  6
ByLayer
100
AcDbEntity
100
AcDbPolyline
 90
4
 70
1
 10
20.121803304689049
 20
4.5439994503004169
 30
0.0
 10
20.3853506795375807
 20
4.5439994503004169
 30
0.0
 10
20.3853506795375807
 20
4.1010155649167039
 30
0.0
 10
20.121803304689049
 20
4.1010155649167039
 30
0.0
  0
LWPOLYLINE
  5
B4
  8
0
 62
256
370
-1
 48
1.0
  6
ByLayer
100
AcDbEntity
100
AcDbPolyline
 90
4
 70
1
 10
20.121803304689049
 20
3.5147443694066869
 30
0.0
 10
20.3853506795375807
 20
3.5147443694066869
 30
0.0
 10
20.3853506795375807
 20
3.9577282547903998
 30
0.0
 10
20.121803304689049
 20
3.9577282547903998
 30
0.0
  0
CIRCLE
  5
B5
100
AcDbEntity
100
AcDbCircle
  8
0
 62
256
370
-1
 48
1.0
  6
ByLayer
 10
8.7907868653565835
 20
3.7179792100399949
 30
0.0
 40
0.0624996306942736
  0
CIRCLE
  5
B6
100
AcDbEntity
100
AcDbCircle
  8
0
 62
256
370
-1
 48
1.0
  6
ByLayer
 10
8.5678752037348609
 20
3.7179792100399949
 30
0.0
 40
0.0624996306942736
  0
CIRCLE
  5
B7
100
AcDbEntity
100
AcDbCircle
  8
0
 62
256
370
-1
 48
1.0
  6
ByLayer
 10
8.7907868653565835
 20
3.9637354548689698
 30
0.0
 40
0.0624996306942736
  0
CIRCLE
  5
B8
100
AcDbEntity
100
AcDbCircle
  8
0
 62
256
370
-1
 48
1.0
  6
ByLayer
 10
8.5678752037348609
 20
3.9637354548689698
 30
0.0
 40
0.0624996306942736
  0
LWPOLYLINE
  5
B9
  8
0
 62
256
370
-1
 48
1.0
  6
ByLayer
100
AcDbEntity
100
AcDbPolyline
 90
4
 70
1
 10
8.4680954222705473
 20
4.0612757065038076
 30
0.0
 10
8.4680954222705473
 20
3.60559309926952
 30
0.0
 10
8.8811496565700132
 20
3.60559309926952
 30
0.0
 10
8.8811496565700132
 20
4.0612757065038076
 30
0.0
  0
LWPOLYLINE
  5
BA
  8
0
 62
256
370
-1
 48
1.0
  6
ByLayer
100
AcDbEntity
100
AcDbPolyline
 90
4
 70
1
 10
8.5608307622780266
 20
5.715271280075398
 30
0.0
 10
8.5608307622780266
 20
5.3608841717684284
 30
0.0
 10
8.8344714408441671
 20
5.3608841717684284
 30
0.0
 10
8.8344714408441671
 20
5.715271280075398
 30
0.0
  0
LWPOLYLINE
  5
BB
  8
0
 62
256
370
-1
 48
1.0
  6
ByLayer
100
AcDbEntity
100
AcDbPolyline
 90
4
 70
1
 10
8.5608307622780266
 20
6.1145175160161616
 30
0.0
 10
8.5608307622780266
 20
5.7601304077091919
 30
0.0
 10
8.8344714408441671
 20
5.7601304077091919
 30
0.0
 10
8.8344714408441671
 20
6.1145175160161616
 30
0.0
  0
LWPOLYLINE
  5
BC
  8
0
 62
256
370
-1
 48
1.0
  6
ByLayer
100
AcDbEntity
100
AcDbPolyline
 90
4
 70
1
 10
10.0000000000000107
 20
6.4999999999999956
 30
0.0
 10
10.0000000000000107
 20
3.4999999999999969
 30
0.0
 10
10.5999999999999996
 20
3.4999999999999969
 30
0.0
 10
10.5999999999999996
 20
6.4999999999999956
 30
0.0
  0
LWPOLYLINE
  5
BD
  8
0
 62
256
370
-1
 48
1.0
  6
ByLayer
100
AcDbEntity
100
AcDbPolyline
 90
3
 70
1
 10
11.8000000000000007
 20
6.4999999999999947
 30
0.0
 10
11.8000000000000007
 20
5.6999999999999948
 30
0.0
 10
11.0
 20
6.4999999999999947
 30
0.0
  0
LWPOLYLINE
  5
BE
  8
0
 62
256
370
-1
 48
1.0
  6
ByLayer
100
AcDbEntity
100
AcDbPolyline
 90
3
 70
1
 10
10.0000000000000107
 20
2.6999999999999962
 30
0.0
 10
10.0000000000000107
 20
3.499999999999996
 30
0.0
 10
10.8000000000000096
 20
2.6999999999999962
 30
0.0
  0
LWPOLYLINE
  5
BF
  8
0
 62
256
370
-1
 48
1.0
  6
ByLayer
100
AcDbEntity
100
AcDbPolyline
 90
4
 70
1
 10
13.1999999999999993
 20
2.499999999999996
 30
0.0
 10
13.1999999999999993
 20
3.2999999999999958
 30
0.0
 10
14.0
 20
3.2999999999999958
 30
0.0
 10
14.0
 20
2.499999999999996
 30
0.0
  0
LWPOLYLINE
  5
C0
  8
0
 62
256
370
-1
 48
1.0
  6
ByLayer
100
AcDbEntity
100
AcDbPolyline
 90
4
 70
1
 10
12.3263215445570005
 20
2.6170115526687772
 30
0.0
 10
12.6672509145738399
 20
2.6170115526687772
 30
0.0
 10
12.6672509145738399
 20
2.8251579048895801
 30
0.0
 10
12.3263215445570005
 20
2.8251579048895801
 30
0.0
  0
CIRCLE
  5
C1
100
AcDbEntity
100
AcDbCircle
  8
0
 62
256
370
-1
 48
1.0
  6
ByLayer
 10
12.4967862295654193
 20
3.0225380664782722
 30
0.0
 40
0.1614928594816725
  0
LWPOLYLINE
  5
C2
  8
0
 62
256
370
-1
 48
1.0
  6
ByLayer
100
AcDbEntity
100
AcDbPolyline
 90
4
 70
1
 10
10.0000000000000107
 20
6.4999999999999956
 30
0.0
 10
10.0000000000000107
 20
5.8999999999999968
 30
0.0
 10
10.6000000000000103
 20
5.8999999999999968
 30
0.0
 10
10.6000000000000103
 20
6.4999999999999956
 30
0.0
  0
LINE
  5
C3
100
AcDbEntity
100
AcDbLine
  8
0
 62
256
370
-1
 48
1.0
  6
ByLayer
 10
10.0000000000000107
 20
6.4999999999999956
 30
0.0
 11
10.6000000000000103
 21
5.8999999999999968
 31
0.0
  0
LINE
  5
C4
100
AcDbEntity
100
AcDbLine
  8
0
 62
256
370
-1
 48
1.0
  6
ByLayer
 10
10.0000000000000107
 20
5.8999999999999968
 30
0.0
 11
10.5999999999999996
 21
6.4999999999999956
 31
0.0
  0
LWPOLYLINE
  5
C5
  8
0
 62
256
370
-1
 48
1.0
  6
ByLayer
100
AcDbEntity
100
AcDbPolyline
 90
4
 70
1
 10
10.0000000000000107
 20
5.8999999999999968
 30
0.0
 10
10.0000000000000107
 20
5.2999999999999972
 30
0.0
 10
10.6000000000000103
 20
5.2999999999999972
 30
0.0
 10
10.6000000000000103
 20
5.8999999999999968
 30
0.0
  0
LINE
  5
C6
100
AcDbEntity
100
AcDbLine
  8
0
 62
256
370
-1
 48
1.0
  6
ByLayer
 10
10.0000000000000107
 20
5.8999999999999968
 30
0.0
 11
10.6000000000000103
 21
5.2999999999999972
 31
0.0
  0
LINE
  5
C7
100
AcDbEntity
100
AcDbLine
  8
0
 62
256
370
-1
 48
1.0
  6
ByLayer
 10
10.0000000000000107
 20
5.2999999999999972
 30
0.0
 11
10.5999999999999996
 21
5.8999999999999968
 31
0.0
  0
LWPOLYLINE
  5
C8
  8
0
 62
256
370
-1
 48
1.0
  6
ByLayer
100
AcDbEntity
100
AcDbPolyline
 90
4
 70
1
 10
10.0000000000000107
 20
4.0999999999999961
 30
0.0
 10
10.0000000000000107
 20
3.4999999999999969
 30
0.0
 10
10.6000000000000103
 20
3.4999999999999969
 30
0.0
 10
10.6000000000000103
 20
4.0999999999999961
 30
0.0
  0
LINE
  5
C9
100
AcDbEntity
100
AcDbLine
  8
0
 62
256
370
-1
 48
1.0
  6
ByLayer
 10
10.0000000000000107
 20
4.0999999999999961
 30
0.0
 11
10.6000000000000103
 21
3.4999999999999969
 31
0.0
  0
LINE
  5
CA
100
AcDbEntity
100
AcDbLine
  8
0
 62
256
370
-1
 48
1.0
  6
ByLayer
 10
10.0000000000000107
 20
3.4999999999999969
 30
0.0
 11
10.5999999999999996
 21
4.0999999999999961
 31
0.0
  0
HATCH
  5
CB
  8
0
 62
256
370
-1
 48
1.0
  6
ByLayer
100
AcDbEntity
100
AcDbHatch
 10
0.0
 20
0.0
 30
0.0
210
0.0
220
0.0
230
1.0
  2
SOLID
 70
1
 71
0
 91
1
 92
1
 93
4
 72
1
 10
8.9999999999999964
 20
0.2499999999999995
 11
8.9999999999999964
 21
0.0000000000000016
 72
1
 10
8.9999999999999964
 20
0.0000000000000016
 11
13.0
 21
0.0000000000000016
 72
1
 10
13.0
 20
0.0000000000000016
 11
13.0
 21
0.2499999999999995
 72
1
 10
13.0
 20
0.2499999999999995
 11
8.9999999999999964
 21
0.2499999999999995
 97
0
 75
0
 76
1
 98
0
1001
ACAD
1010
0.0
1020
0.0
1030
0
  0
LWPOLYLINE
  5
CC
  8
0
 62
256
370
-1
 48
1.0
  6
ByLayer
100
AcDbEntity
100
AcDbPolyline
 90
4
 70
0
 10
9.7500000000000053
 20
0.0
 30
0.0
 10
9.7500000000000036
 20
-4.9261500939034484
 30
0.0
 10
10.2499999999999893
 20
-4.9261500939034484
 30
0.0
 10
10.2499999999999893
 20
-0.0000000000000004
 30
0.0
  0
LWPOLYLINE
  5
CD
  8
0
 62
256
370
-1
 48
1.0
  6
ByLayer
100
AcDbEntity
100
AcDbPolyline
 90
4
 70
0
 10
20.75
 20
-0.0000000000000018
 30
0.0
 10
20.75
 20
-2.000000000000004
 30
0.0
 10
21.2499999999999893
 20
-2.000000000000004
 30
0.0
 10
21.2499999999999893
 20
-0.0000000000000022
 30
0.0
  0
LWPOLYLINE
  5
CE
  8
0
 62
256
370
-1
 48
1.0
  6
ByLayer
100
AcDbEntity
100
AcDbPolyline
 90
4
 70
0
 10
10.2499999999999893
 20
8.4999999999999929
 30
0.0
 10
10.2499999999999893
 20
11.7565454854852405
 30
0.0
 10
9.7500000000000053
 20
11.7565454854852405
 30
0.0
 10
9.7500000000000053
 20
8.4999999999999929
 30
0.0
  0
LWPOLYLINE
  5
CF
  8
0
 62
256
370
-1
 48
1.0
  6
ByLayer
100
AcDbEntity
100
AcDbPolyline
 90
4
 70
0
 10
21.2499999999999893
 20
8.4999999999999911
 30
0.0
 10
21.2499999999999893
 20
10.4999999999999893
 30
0.0
 10
20.75
 20
10.4999999999999893
 30
0.0
 10
20.75
 20
8.4999999999999929
 30
0.0
  0
CIRCLE
  5
D0
100
AcDbEntity
100
AcDbCircle
  8
0
 62
256
370
-1
 48
1.0
  6
ByLayer
 10
1.925000000000006
 20
6.4999999999999973
 30
0.0
 40
0.1250000000000018
  0
HATCH
  5
D1
  8
0
 62
256
370
-1
 48
1.0
  6
ByLayer
100
AcDbEntity
100
AcDbHatch
 10
0.0
 20
0.0
 30
0.0
210
0.0
220
0.0
230
1.0
  2
SOLID
 70
1
 71
0
 91
1
 92
1
 93
1
 72
2
 10
1.925000000000006
 20
6.4999999999999973
 40
0.1250000000000018
 50
0.0
 51
360.0
 73
1
 97
0
 75
0
 76
1
 98
0
1001
ACAD
1010
0.0
1020
0.0
1030
0
  0
LWPOLYLINE
  5
D2
  8
0
 62
256
370
-1
 48
1.0
  6
ByLayer
100
AcDbEntity
100
AcDbPolyline
 90
4
 70
1
 10
13.8747393187901498
 20
5.8833890345178101
 30
0.0
 10
13.8747393187901498
 20
6.2243184045346416
 30
0.0
 10
13.6665929665693504
 20
6.2243184045346416
 30
0.0
 10
13.6665929665693504
 20
5.8833890345178101
 30
0.0
  0
CIRCLE
  5
D3
100
AcDbEntity
100
AcDbCircle
  8
0
 62
256
370
-1
 48
1.0
  6
ByLayer
 10
13.4692128049806605
 20
6.0538537195262263
 30
0.0
 40
0.1614928594816725
  0
LWPOLYLINE
  5
D4
  8
0
 62
256
370
-1
 48
1.0
  6
ByLayer
100
AcDbEntity
100
AcDbPolyline
 90
4
 70
1
 10
24.1999999999999993
 20
4.4999999999999956
 30
0.0
 10
24.1999999999999993
 20
5.2999999999999963
 30
0.0
 10
25.0
 20
5.2999999999999963
 30
0.0
 10
25.0
 20
4.4999999999999956
 30
0.0
  0
LWPOLYLINE
  5
D5
  8
0
 62
256
370
-1
 48
1.0
  6
ByLayer
100
AcDbEntity
100
AcDbPolyline
 90
4
 70
1
 10
24.8829884473312113
 20
6.1736784554429853
 30
0.0
 10
24.8829884473312113
 20
5.8327490854261548
 30
0.0
 10
24.6748420951104102
 20
5.8327490854261548
 30
0.0
 10
24.6748420951104102
 20
6.1736784554429853
 30
0.0
  0
CIRCLE
  5
D6
100
AcDbEntity
100
AcDbCircle
  8
0
 62
256
370
-1
 48
1.0
  6
ByLayer
 10
24.4774619335217203
 20
6.0032137704345656
 30
0.0
 40
0.1614928594816725
  0
CIRCLE
  5
D7
100
AcDbEntity
100
AcDbCircle
  8
0
 62
256
370
-1
 48
1.0
  6
ByLayer
 10
23.3787604691446695
 20
4.8245052551143717
 30
0.0
 40
0.1861717571337312
  0
CIRCLE
  5
D8
100
AcDbEntity
100
AcDbCircle
  8
0
 62
256
370
-1
 48
1.0
  6
ByLayer
 10
12.3507692958910908
 20
4.6167744193248286
 30
0.0
 40
0.1861717571337312
  0
CIRCLE
  5
D9
100
AcDbEntity
100
AcDbCircle
  8
0
 62
256
370
-1
 48
1.0
  6
ByLayer
 10
12.3507692958910908
 20
4.0952870605819767
 30
0.0
 40
0.1861717571337312
  0
CIRCLE
  5
DA
100
AcDbEntity
100
AcDbCircle
  8
0
 62
256
370
-1
 48
1.0
  6
ByLayer
 10
12.6036899639575104
 20
5.4282508740995272
 30
0.0
 40
0.1861717571337312
  0
CIRCLE
  5
DB
100
AcDbEntity
100
AcDbCircle
  8
0
 62
256
370
-1
 48
1.0
  6
ByLayer
 10
23.8441739183452803
 20
4.8245052551143717
 30
0.0
 40
0.1861717571337312
  0
LINE
  5
DC
100
AcDbEntity
100
AcDbLine
  8
eixos
 62
256
370
-1
 48
1.0
  6
ByLayer
 10
-4.8833871255077117
 20
12.1395836609182304
 30
0.0
 11
-4.8833871255077144
 21
-5.4808398412111208
 31
0.0
  0
LINE
  5
DD
100
AcDbEntity
100
AcDbLine
  8
eixos
 62
256
370
-1
 48
1.0
  6
ByLayer
 10
-7.2833871255077121
 20
12.1395836609182304
 30
0.0
 11
-7.2833871255077147
 21
-5.4808398412111217
 31
0.0
  0
LINE
  5
DE
100
AcDbEntity
100
AcDbLine
  8
eixos
 62
256
370
-1
 48
1.0
  6
ByLayer
 10
-10.2833871255077103
 20
12.1395836609182304
 30
0.0
 11
-10.2833871255077103
 21
-5.4808398412111217
 31
0.0
  0
LINE
  5
DF
100
AcDbEntity
100
AcDbLine
  8
eixos
 62
256
370
-1
 48
1.0
  6
ByLayer
 10
-10.0833871255077092
 20
12.1395836609182304
 30
0.0
 11
-10.0833871255077092
 21
-5.4808398412111217
 31
0.0
  0
LINE
  5
E0
100
AcDbEntity
100
AcDbLine
  8
eixos
 62
256
370
-1
 48
1.0
  6
ByLayer
 10
-7.0833871255077119
 20
12.1395836609182304
 30
0.0
 11
-7.0833871255077154
 21
-5.4808398412111217
 31
0.0
  0
LWPOLYLINE
  5
E1
  8
0
 62
256
370
-1
 48
1.0
  6
ByLayer
100
AcDbEntity
100
AcDbPolyline
 90
4
 70
1
 10
-10.2833871255077103
 20
0.0000000000000056
 30
0.0
 10
-10.0833871255077092
 20
0.0000000000000056
 30
0.0
 10
-10.0833871255077092
 20
8.4999999999999982
 30
0.0
 10
-10.2833871255077103
 20
8.4999999999999982
 30
0.0
  0
LWPOLYLINE
  5
E2
  8
0
 62
256
370
-1
 48
1.0
  6
ByLayer
100
AcDbEntity
100
AcDbPolyline
 90
4
 70
1
 10
-7.2833871255077014
 20
0.0000000000000052
 30
0.0
 10
-7.0833871255077074
 20
0.0000000000000052
 30
0.0
 10
-7.0833871255077057
 20
8.4999999999999982
 30
0.0
 10
-7.2833871255077014
 20
8.4999999999999982
 30
0.0
  0
LINE
  5
E3
100
AcDbEntity
100
AcDbLine
  8
0
 62
256
370
-1
 48
1.0
  6
ByLayer
 10
-4.8833871255077126
 20
7.8075608780637129
 30
0.0
 11
-4.8833871255077144
 21
-2.7473850655088992
 31
0.0
  0
LWPOLYLINE
  5
E4
  8
0
 62
256
370
-1
 48
1.0
  6
ByLayer
100
AcDbEntity
100
AcDbPolyline
 90
5
 70
0
 10
-5.3543107739389884
 20
10.4999999999999893
 30
0.0
 10
-7.0833871255077119
 20
10.4999999999999893
 30
0.0
 10
-7.0833871255077137
 20
-2.0000000000000071
 30
0.0
 10
-4.8833871255077126
 20
-2.0000000000000049
 30
0.0
 10
-4.8833871255077117
 20
7.8075608780637111
 30
0.0
  0
LINE
  5
E5
100
AcDbEntity
100
AcDbLine
  8
0
 62
256
370
-1
 48
1.0
  6
ByLayer
 10
-7.2833871255077014
 20
2.5
 30
0.0
 11
-10.0833871255077092
 21
2.4999999999999991
 31
0.0
  0
LINE
  5
E6
100
AcDbEntity
100
AcDbLine
  8
0
 62
256
370
-1
 48
1.0
  6
ByLayer
 10
-7.2833871255077129
 20
8.1999999999999993
 30
0.0
 11
-10.0833871255077092
 21
8.1999999999999993
 31
0.0
  0
LINE
  5
E7
100
AcDbEntity
100
AcDbLine
  8
0
 62
256
370
-1
 48
1.0
  6
ByLayer
 10
-7.2833871255077014
 20
2.5499999999999998
 30
0.0
 11
-10.0833871255077092
 21
2.5499999999999989
 31
0.0
  0
LINE
  5
E8
100
AcDbEntity
100
AcDbLine
  8
0
 62
256
370
-1
 48
1.0
  6
ByLayer
 10
-7.2833871255077129
 20
8.1499999999999986
 30
0.0
 11
-10.0833871255077092
 21
8.1499999999999986
 31
0.0
  0
LWPOLYLINE
  5
E9
  8
0
 62
256
370
-1
 48
1.0
  6
ByLayer
100
AcDbEntity
100
AcDbPolyline
 90
4
 70
1
 10
-9.9833871255077149
 20
2.5499999999999989
 30
0.0
 10
-10.0833871255077092
 20
2.5499999999999989
 30
0.0
 10
-10.0833871255077092
 20
8.1499999999999986
 30
0.0
 10
-9.9833871255077149
 20
8.1499999999999986
 30
0.0
  0
LWPOLYLINE
  5
EA
  8
0
 62
256
370
-1
 48
1.0
  6
ByLayer
100
AcDbEntity
100
AcDbPolyline
 90
4
 70
1
 10
-7.3833871255077126
 20
2.5499999999999998
 30
0.0
 10
-7.2833871255077147
 20
2.5499999999999998
 30
0.0
 10
-7.2833871255077138
 20
8.1499999999999986
 30
0.0
 10
-7.3833871255077126
 20
8.1499999999999986
 30
0.0
  0
LWPOLYLINE
  5
EB
  8
0
 62
256
370
-1
 48
1.0
  6
ByLayer
100
AcDbEntity
100
AcDbPolyline
 90
4
 70
1
 10
-10.0833871255077092
 20
0.0000000000000056
 30
0.0
 10
-7.2833871255077014
 20
0.0000000000000054
 30
0.0
 10
-7.2833871255077014
 20
0.2500000000000044
 30
0.0
 10
-10.0833871255077092
 20
0.2500000000000046
 30
0.0
  0
LINE
  5
EC
100
AcDbEntity
100
AcDbLine
  8
0
 62
256
370
-1
 48
1.0
  6
ByLayer
 10
8.8000000000000007
 20
8.4999999999999964
 30
0.0
 11
8.8000000000000007
 21
13.6698844856830792
 31
0.0
  0
LINE
  5
ED
100
AcDbEntity
100
AcDbLine
  8
0
 62
256
370
-1
 48
1.0
  6
ByLayer
 10
7.7000000000000002
 20
8.4999999999999964
 30
0.0
 11
7.7000000000000002
 21
13.6698844856830792
 31
0.0
  0
LWPOLYLINE
  5
EE
  8
0
 62
256
370
-1
 48
1.0
  6
ByLayer
100
AcDbEntity
100
AcDbPolyline
 90
5
 70
0
 10
27.0158621958186487
 20
8.4999999999999929
 30
0.0
 10
26.8242625922099087
 20
8.6915996036087328
 30
0.0
 42
-0.579317125368496
 10
27.4312991960063499
 20
10.9306690438415206
 30
0.0
 42
-0.2660611654352386
 10
28.6453724035992394
 20
10.60227219260738
 30
0.0
 42
0.3257953070225401
 10
30.964053201706971
 20
10.2415332272365394
 30
0.0
 42
0.3257953070225401
  0
LWPOLYLINE
  5
EF
  8
0
 62
256
370
-1
 48
1.0
  6
ByLayer
100
AcDbEntity
100
AcDbPolyline
 90
5
 70
0
 10
28.1472330457171189
 20
8.4999999999999929
 30
0.0
 10
27.3899480171591492
 20
9.2572850285579698
 30
0.0
 42
-0.5793171253684966
 10
27.6337951341979888
 20
10.1567211159963193
 30
0.0
 42
-0.2660611654352387
 10
28.0803401502740506
 20
10.0359343493527895
 30
0.0
 42
0.3257953070225398
 10
31.3303223489901406
 20
9.5303040716555394
 30
0.0
 42
0.3257953070225398
  0
LWPOLYLINE
  5
F0
  8
0
 62
256
370
-1
 48
1.0
  6
ByLayer
100
AcDbEntity
100
AcDbPolyline
 90
6
 70
0
 10
28.1472330457171189
 20
8.4999999999999929
 30
0.0
 10
30.0
 20
8.4999999999999929
 30
0.0
 10
30.0
 20
0.0
 30
0.0
 10
0.0
 20
0.0
 30
0.0
 10
0.0
 20
8.4999999999999929
 30
0.0
 10
7.6999999999999993
 20
8.4999999999999929
 30
0.0
  0
LWPOLYLINE
  5
F1
  8
0
 62
256
370
-1
 48
1.0
  6
ByLayer
100
AcDbEntity
100
AcDbPolyline
 90
5
 70
0
 10
-4.8833871255077126
 20
7.8075608780637129
 30
0.0
 10
-5.767266580243092
 20
12.8610162119224398
 30
0.0
 10
-6.2388780588572113
 20
13.1502747276899701
 30
0.0
 10
-5.9421938802612786
 20
16.0680167122558615
 30
0.0
 10
-5.0388780588572111
 20
17.9727806457872283
 30
0.0
  0
LINE
  5
F2
100
AcDbEntity
100
AcDbLine
  8
0
 62
256
370
-1
 48
1.0
  6
ByLayer
 10
-7.2833871255077014
 20
8.4999999999999982
 30
0.0
 11
-6.2388780588572113
 21
13.1502747276899701
 31
0.0
  0
HATCH
  5
F3
  8
0
 62
256
370
-1
 48
1.0
  6
ByLayer
100
AcDbEntity
100
AcDbHatch
 10
0.0
 20
0.0
 30
0.0
210
0.0
220
0.0
230
1.0
  2
SOLID
 70
1
 71
0
 91
1
 92
1
 93
4
 72
1
 10
-10.2833871255077103
 20
0.0000000000000056
 11
-10.0833871255077092
 21
0.0000000000000056
 72
1
 10
-10.0833871255077092
 20
0.0000000000000056
 11
-10.0833871255077092
 21
8.4999999999999982
 72
1
 10
-10.0833871255077092
 20
8.4999999999999982
 11
-10.2833871255077103
 21
8.4999999999999982
 72
1
 10
-10.2833871255077103
 20
8.4999999999999982
 11
-10.2833871255077103
 21
0.0000000000000053
 97
0
 75
0
 76
1
 98
0
1001
ACAD
1010
0.0
1020
0.0
1030
0
  0
HATCH
  5
F4
  8
0
 62
256
370
-1
 48
1.0
  6
ByLayer
100
AcDbEntity
100
AcDbHatch
 10
0.0
 20
0.0
 30
0.0
210
0.0
220
0.0
230
1.0
  2
SOLID
 70
1
 71
0
 91
1
 92
1
 93
4
 72
1
 10
-7.2833871255077014
 20
0.0000000000000052
 11
-7.0833871255077074
 21
0.0000000000000052
 72
1
 10
-7.0833871255077074
 20
0.0000000000000052
 11
-7.0833871255077057
 21
8.4999999999999982
 72
1
 10
-7.0833871255077057
 20
8.4999999999999982
 11
-7.2833871255077014
 21
8.4999999999999982
 72
1
 10
-7.2833871255077014
 20
8.4999999999999982
 11
-7.2833871255077014
 21
0.0000000000000053
 97
0
 75
0
 76
1
 98
0
1001
ACAD
1010
0.0
1020
0.0
1030
0
  0
LWPOLYLINE
  5
F5
  8
0
 62
256
370
-1
 48
1.0
  6
ByLayer
100
AcDbEntity
100
AcDbPolyline
 90
3
 70
1
 10
7.8999999999999986
 20
8.1999999999999975
 30
0.0
 10
7.8999999999999986
 20
7.3999999999999977
 30
0.0
 10
8.6999999999999993
 20
8.1999999999999975
 30
0.0
  0
LWPOLYLINE
  5
F6
  8
0
 62
256
370
-1
 48
1.0
  6
ByLayer
100
AcDbEntity
100
AcDbPolyline
 90
3
 70
1
 10
27.87510932569527
 20
8.1999999999999975
 30
0.0
 10
27.87510932569527
 20
7.3999999999999977
 30
0.0
 10
27.0751093256952693
 20
8.1999999999999975
 30
0.0
  0
LINE
  5
F7
100
AcDbEntity
100
AcDbLine
  8
eixos
 62
256
370
-1
 48
1.0
  6
ByLayer
 10
-2.92341132998996
 20
-16.7621173186733792
 30
0.0
 11
33.51759424172959
 21
-16.7621173186733792
 31
0.0
  0
LINE
  5
F8
100
AcDbEntity
100
AcDbLine
  8
eixos
 62
256
370
-1
 48
1.0
  6
ByLayer
 10
-2.92341132998996
 20
-14.3621173186733806
 30
0.0
 11
33.51759424172959
 21
-14.3621173186733806
 31
0.0
  0
LINE
  5
F9
100
AcDbEntity
100
AcDbLine
  8
eixos
 62
256
370
-1
 48
1.0
  6
ByLayer
 10
-2.92341132998996
 20
-11.3621173186733806
 30
0.0
 11
33.51759424172959
 21
-11.3621173186733806
 31
0.0
  0
LINE
  5
FA
100
AcDbEntity
100
AcDbLine
  8
eixos
 62
256
370
-1
 48
1.0
  6
ByLayer
 10
-2.92341132998996
 20
-11.5621173186733799
 30
0.0
 11
33.51759424172959
 21
-11.5621173186733799
 31
0.0
  0
LINE
  5
FB
100
AcDbEntity
100
AcDbLine
  8
eixos
 62
256
370
-1
 48
1.0
  6
ByLayer
 10
-2.92341132998996
 20
-14.5621173186733799
 30
0.0
 11
33.51759424172959
 21
-14.5621173186733799
 31
0.0
  0
LWPOLYLINE
  5
FC
  8
0
 62
256
370
-1
 48
1.0
  6
ByLayer
100
AcDbEntity
100
AcDbPolyline
 90
6
 70
0
 10
8.9999999999999893
 20
-14.3621173186733806
 30
0.0
 10
-0.000000000000004
 20
-14.3621173186733806
 30
0.0
 10
-0.000000000000004
 20
-14.5621173186733994
 30
0.0
 10
30.0
 20
-14.5621173186733994
 30
0.0
 10
30.0
 20
-14.3621173186733806
 30
0.0
 10
12.9999999999999893
 20
-14.3621173186733806
 30
0.0
  0
LWPOLYLINE
  5
FD
  8
0
 62
256
370
-1
 48
1.0
  6
ByLayer
100
AcDbEntity
100
AcDbPolyline
 90
6
 70
0
 10
8.9999999999999929
 20
-11.5621173186733799
 30
0.0
 10
-0.0000000000000036
 20
-11.5621173186733799
 30
0.0
 10
-0.0000000000000036
 20
-11.3621173186733806
 30
0.0
 10
30.0
 20
-11.3621173186733806
 30
0.0
 10
30.0
 20
-11.5621173186733799
 30
0.0
 10
12.9999999999999893
 20
-11.5621173186733799
 30
0.0
  0
LINE
  5
FE
100
AcDbEntity
100
AcDbLine
  8
0
 62
256
370
-1
 48
1.0
  6
ByLayer
 10
8.9999999999999964
 20
-11.5621173186733799
 30
0.0
 11
8.9999999999999964
 21
-14.3621173186733806
 31
0.0
  0
LINE
  5
FF
100
AcDbEntity
100
AcDbLine
  8
0
 62
256
370
-1
 48
1.0
  6
ByLayer
 10
12.9999999999999893
 20
-11.5621173186733799
 30
0.0
 11
12.9999999999999893
 21
-14.3621173186733806
 31
0.0
  0
LINE
  5
100
100
AcDbEntity
100
AcDbLine
  8
0
 62
256
370
-1
 48
1.0
  6
ByLayer
 10
20.8749999999999893
 20
-11.5621173186733799
 30
0.0
 11
20.8749999999999893
 21
-14.3621173186733806
 31
0.0
  0
LINE
  5
101
100
AcDbEntity
100
AcDbLine
  8
0
 62
256
370
-1
 48
1.0
  6
ByLayer
 10
21.125
 20
-11.5621173186733799
 30
0.0
 11
21.125
 21
-14.3621173186733806
 31
0.0
  0
LWPOLYLINE
  5
102
  8
0
 62
256
370
-1
 48
1.0
  6
ByLayer
100
AcDbEntity
100
AcDbPolyline
 90
4
 70
1
 10
20.7499999999999893
 20
-14.5621173186733799
 30
0.0
 10
20.75
 20
-16.7621173186733792
 30
0.0
 10
21.2499999999999893
 20
-16.7621173186733792
 30
0.0
 10
21.2499999999999893
 20
-14.5621173186733799
 30
0.0
  0
LWPOLYLINE
  5
103
  8
0
 62
256
370
-1
 48
1.0
  6
ByLayer
100
AcDbEntity
100
AcDbPolyline
 90
4
 70
1
 10
9.7499999999999982
 20
-14.5621173186733692
 30
0.0
 10
9.7500000000000018
 20
-16.7621173186733792
 30
0.0
 10
10.2499999999999893
 20
-16.7621173186733792
 30
0.0
 10
10.2499999999999893
 20
-14.5621173186733692
 30
0.0
  0
LINE
  5
104
100
AcDbEntity
100
AcDbLine
  8
0
 62
256
370
-1
 48
1.0
  6
ByLayer
 10
2.0500000000000109
 20
-11.5621173186733692
 30
0.0
 11
2.0500000000000109
 21
-13.2621173186733792
 31
0.0
  0
LINE
  5
105
100
AcDbEntity
100
AcDbLine
  8
0
 62
256
370
-1
 48
1.0
  6
ByLayer
 10
1.800000000000004
 20
-11.5621173186733692
 30
0.0
 11
1.800000000000004
 21
-13.2621173186733792
 31
0.0
  0
LINE
  5
106
100
AcDbEntity
100
AcDbLine
  8
0
 62
256
370
-1
 48
1.0
  6
ByLayer
 10
2.000000000000012
 20
-11.5621173186733692
 30
0.0
 11
2.000000000000012
 21
-13.2621173186733792
 31
0.0
  0
LINE
  5
107
100
AcDbEntity
100
AcDbLine
  8
0
 62
256
370
-1
 48
1.0
  6
ByLayer
 10
29.6999999999999993
 20
-11.5621173186733799
 30
0.0
 11
29.6999999999999993
 21
-13.2621173186733703
 31
0.0
  0
LINE
  5
108
100
AcDbEntity
100
AcDbLine
  8
0
 62
256
370
-1
 48
1.0
  6
ByLayer
 10
29.6499999999999986
 20
-11.5621173186733799
 30
0.0
 11
29.6499999999999986
 21
-13.2621173186733703
 31
0.0
  0
LWPOLYLINE
  5
109
  8
0
 62
256
370
-1
 48
1.0
  6
ByLayer
100
AcDbEntity
100
AcDbPolyline
 90
4
 70
1
 10
29.6499999999999986
 20
-11.5621173186733799
 30
0.0
 10
29.6499999999999986
 20
-11.6621173186733795
 30
0.0
 10
21.125
 20
-11.6621173186733795
 30
0.0
 10
21.125
 20
-11.5621173186733799
 30
0.0
  0
LWPOLYLINE
  5
10A
  8
0
 62
256
370
-1
 48
1.0
  6
ByLayer
100
AcDbEntity
100
AcDbPolyline
 90
4
 70
1
 10
20.8749999999999893
 20
-11.6621173186733795
 30
0.0
 10
20.8749999999999893
 20
-11.5621173186733799
 30
0.0
 10
12.9999999999999893
 20
-11.5621173186733799
 30
0.0
 10
12.9999999999999893
 20
-11.6621173186733795
 30
0.0
  0
LWPOLYLINE
  5
10B
  8
0
 62
256
370
-1
 48
1.0
  6
ByLayer
100
AcDbEntity
100
AcDbPolyline
 90
4
 70
1
 10
8.9999999999999964
 20
-11.6621173186733795
 30
0.0
 10
8.9999999999999964
 20
-11.5621173186733692
 30
0.0
 10
2.0500000000000109
 20
-11.5621173186733692
 30
0.0
 10
2.0500000000000109
 20
-11.6621173186733795
 30
0.0
  0
LWPOLYLINE
  5
10C
  8
0
 62
256
370
-1
 48
1.0
  6
ByLayer
100
AcDbEntity
100
AcDbPolyline
 90
4
 70
1
 10
2.0500000000000109
 20
-14.3621173186733699
 30
0.0
 10
2.0500000000000109
 20
-14.2621173186733703
 30
0.0
 10
8.9999999999999947
 20
-14.2621173186733703
 30
0.0
 10
8.9999999999999947
 20
-14.3621173186733699
 30
0.0
  0
LWPOLYLINE
  5
10D
  8
0
 62
256
370
-1
 48
1.0
  6
ByLayer
100
AcDbEntity
100
AcDbPolyline
 90
4
 70
1
 10
12.9999999999999893
 20
-14.3621173186733806
 30
0.0
 10
12.9999999999999893
 20
-14.2621173186733792
 30
0.0
 10
20.8749999999999893
 20
-14.2621173186733792
 30
0.0
 10
20.8749999999999893
 20
-14.3621173186733806
 30
0.0
  0
LWPOLYLINE
  5
10E
  8
0
 62
256
370
-1
 48
1.0
  6
ByLayer
100
AcDbEntity
100
AcDbPolyline
 90
4
 70
1
 10
21.125
 20
-14.3621173186733806
 30
0.0
 10
21.125
 20
-14.2621173186733792
 30
0.0
 10
29.6499999999999986
 20
-14.2621173186733792
 30
0.0
 10
29.6499999999999986
 20
-14.3621173186733806
 30
0.0
  0
LWPOLYLINE
  5
10F
  8
0
 62
256
370
-1
 48
1.0
  6
ByLayer
100
AcDbEntity
100
AcDbPolyline
 90
4
 70
1
 10
29.8000000000000007
 20
-13.2621173186733703
 30
0.0
 10
29.8000000000000007
 20
-14.2621173186733792
 30
0.0
 10
21.125
 20
-14.2621173186733792
 30
0.0
 10
21.125
 20
-13.2621173186733703
 30
0.0
  0
LWPOLYLINE
  5
110
  8
0
 62
256
370
-1
 48
1.0
  6
ByLayer
100
AcDbEntity
100
AcDbPolyline
 90
4
 70
1
 10
20.8749999999999893
 20
-13.2621173186733792
 30
0.0
 10
20.8749999999999893
 20
-14.2621173186733792
 30
0.0
 10
12.9999999999999893
 20
-14.2621173186733792
 30
0.0
 10
12.9999999999999893
 20
-13.2621173186733792
 30
0.0
  0
LWPOLYLINE
  5
111
  8
0
 62
256
370
-1
 48
1.0
  6
ByLayer
100
AcDbEntity
100
AcDbPolyline
 90
4
 70
1
 10
8.9999999999999964
 20
-13.2621173186733792
 30
0.0
 10
8.9999999999999964
 20
-14.2621173186733792
 30
0.0
 10
0.1999999999999964
 20
-14.2621173186733792
 30
0.0
 10
0.1999999999999964
 20
-13.2621173186733792
 30
0.0
  0
LINE
  5
112
100
AcDbEntity
100
AcDbLine
  8
0
 62
256
370
-1
 48
1.0
  6
ByLayer
 10
1.800000000000004
 20
-14.2621173186733792
 30
0.0
 11
1.800000000000004
 21
-14.3621173186733699
 31
0.0
  0
LINE
  5
113
100
AcDbEntity
100
AcDbLine
  8
0
 62
256
370
-1
 48
1.0
  6
ByLayer
 10
2.000000000000012
 20
-14.2621173186733792
 30
0.0
 11
2.000000000000012
 21
-14.3621173186733699
 31
0.0
  0
LINE
  5
114
100
AcDbEntity
100
AcDbLine
  8
0
 62
256
370
-1
 48
1.0
  6
ByLayer
 10
2.0500000000000109
 20
-14.2621173186733792
 30
0.0
 11
2.0500000000000109
 21
-14.3621173186733699
 31
0.0
  0
LINE
  5
115
100
AcDbEntity
100
AcDbLine
  8
0
 62
256
370
-1
 48
1.0
  6
ByLayer
 10
29.6499999999999986
 20
-14.2621173186733792
 30
0.0
 11
29.6499999999999986
 21
-14.3621173186733806
 31
0.0
  0
LINE
  5
116
100
AcDbEntity
100
AcDbLine
  8
0
 62
256
370
-1
 48
1.0
  6
ByLayer
 10
29.6999999999999993
 20
-14.2621173186733792
 30
0.0
 11
29.6999999999999993
 21
-14.3621173186733806
 31
0.0
  0
LINE
  5
117
100
AcDbEntity
100
AcDbLine
  8
0
 62
256
370
-1
 48
1.0
  6
ByLayer
 10
-4.4457489401714838
 20
-16.7621173186733792
 30
0.0
 11
34.6679105811587931
 21
-16.7621173186733792
 31
0.0
  0
ENDSEC
  0
SECTION
  2
OBJECTS
  0
DICTIONARY
  5
C
100
AcDbDictionary
280
0
281
1
  3
ACAD_GROUP
350
D
  3
ACAD_LAYOUT
350
1A
  3
ACAD_MLINESTYLE
350
17
  3
ACAD_PLOTSETTINGS
350
19
  3
ACAD_PLOTSTYLENAME
350
E
  3
AcDbVariableDictionary
350
118
  3
QCAD_OBJECTS
350
119
  0
DICTIONARY
  5
D
100
AcDbDictionary
280
0
281
1
  0
ACDBDICTIONARYWDFLT
  5
E
100
AcDbDictionary
281
1
  3
Normal
350
F
100
AcDbDictionaryWithDefault
340
F
  0
ACDBPLACEHOLDER
  5
F
  0
DICTIONARY
  5
17
100
AcDbDictionary
280
0
281
1
  3
Standard
350
18
  0
MLINESTYLE
  5
18
100
AcDbMlineStyle
  2
STANDARD
 70
0
  3

 62
256
 51
90.0
 52
90.0
 71
2
 49
0.5
 62
256
  6
BYLAYER
 49
-0.5
 62
256
  6
BYLAYER
  0
DICTIONARY
  5
19
100
AcDbDictionary
280
0
281
1
  0
DICTIONARY
  5
1A
100
AcDbDictionary
281
1
  3
Layout1
350
1E
  3
Layout2
350
26
  3
Model
350
22
  0
LAYOUT
  5
1E
100
AcDbPlotSettings
  1

  2
none_device
  4

  6

 40
0.0
 41
0.0
 42
0.0
 43
0.0
 44
0.0
 45
0.0
 46
0.0
 47
0.0
 48
0.0
 49
0.0
140
0.0
141
0.0
142
1.0
143
1.0
 70
688
 72
0
 73
0
 74
5
  7

 75
16
147
1.0
148
0.0
149
0.0
100
AcDbLayout
  1
Layout1
 70
1
 71
1
 10
0.0
 20
0.0
 11
420.0
 21
297.0
 12
0.0
 22
0.0
 32
0.0
 14
100000000000000000000.0
 24
100000000000000000000.0
 34
100000000000000000000.0
 15
-100000000000000000000.0
 25
-100000000000000000000.0
 35
-100000000000000000000.0
146
0.0
 13
0.0
 23
0.0
 33
0.0
 16
1.0
 26
0.0
 36
0.0
 17
0.0
 27
1.0
 37
0.0
 76
0
330
1B
  0
LAYOUT
  5
22
100
AcDbPlotSettings
  1

  2
none_device
  4

  6

 40
0.0
 41
0.0
 42
0.0
 43
0.0
 44
0.0
 45
0.0
 46
0.0
 47
0.0
 48
0.0
 49
0.0
140
0.0
141
0.0
142
1.0
143
1.0
 70
1712
 72
0
 73
0
 74
0
  7

 75
0
147
1.0
148
0.0
149
0.0
100
AcDbLayout
  1
Model
 70
1
 71
0
 10
0.0
 20
0.0
 11
12.0
 21
9.0
 12
0.0
 22
0.0
 32
0.0
 14
0.0
 24
0.0
 34
0.0
 15
0.0
 25
0.0
 35
0.0
146
0.0
 13
0.0
 23
0.0
 33
0.0
 16
1.0
 26
0.0
 36
0.0
 17
0.0
 27
1.0
 37
0.0
 76
0
330
1F
  0
LAYOUT
  5
26
100
AcDbPlotSettings
  1

  2
none_device
  4

  6

 40
0.0
 41
0.0
 42
0.0
 43
0.0
 44
0.0
 45
0.0
 46
0.0
 47
0.0
 48
0.0
 49
0.0
140
0.0
141
0.0
142
1.0
143
1.0
 70
688
 72
0
 73
0
 74
5
  7

 75
16
147
1.0
148
0.0
149
0.0
100
AcDbLayout
  1
Layout2
 70
1
 71
2
 10
0.0
 20
0.0
 11
12.0
 21
9.0
 12
0.0
 22
0.0
 32
0.0
 14
0.0
 24
0.0
 34
0.0
 15
0.0
 25
0.0
 35
0.0
146
0.0
 13
0.0
 23
0.0
 33
0.0
 16
1.0
 26
0.0
 36
0.0
 17
0.0
 27
1.0
 37
0.0
 76
0
330
23
  0
DICTIONARY
  5
118
100
AcDbDictionary
281
1
  3
DIMASSOC
350
11B
  3
HIDETEXT
350
11A
  0
DICTIONARYVAR
  5
11A
100
DictionaryVariables
280
0
  1
2
  0
DICTIONARYVAR
  5
11B
100
DictionaryVariables
280
0
  1
1
  0
DICTIONARY
  5
119
100
AcDbDictionary
281
1
  3
ColorSettings/BackgroundColor
350
11C
  3
ColorSettings/ColorMode
350
11D
  3
Grid/DisplayGrid00
350
11E
  3
Grid/DisplayGrid01
350
11F
  3
Grid/DisplayGrid02
350
120
  3
Grid/DisplayGrid03
350
121
  3
Grid/GridSpacingX00
350
122
  3
Grid/GridSpacingX01
350
123
  3
Grid/GridSpacingX02
350
124
  3
Grid/GridSpacingX03
350
125
  3
Grid/GridSpacingY00
350
126
  3
Grid/GridSpacingY01
350
127
  3
Grid/GridSpacingY02
350
128
  3
Grid/GridSpacingY03
350
129
  3
Grid/IsometricGrid00
350
12A
  3
Grid/IsometricGrid01
350
12B
  3
Grid/IsometricGrid02
350
12C
  3
Grid/IsometricGrid03
350
12D
  3
Grid/IsometricProjection00
350
12E
  3
Grid/IsometricProjection01
350
12F
  3
Grid/IsometricProjection02
350
130
  3
Grid/IsometricProjection03
350
131
  3
Grid/MetaGridSpacingX00
350
132
  3
Grid/MetaGridSpacingX01
350
133
  3
Grid/MetaGridSpacingX02
350
134
  3
Grid/MetaGridSpacingX03
350
135
  3
Grid/MetaGridSpacingY00
350
136
  3
Grid/MetaGridSpacingY01
350
137
  3
Grid/MetaGridSpacingY02
350
138
  3
Grid/MetaGridSpacingY03
350
139
  3
MultiPageSettings/Columns
350
13A
  3
MultiPageSettings/GlueMarginsBottom
350
13B
  3
MultiPageSettings/GlueMarginsLeft
350
13C
  3
MultiPageSettings/GlueMarginsRight
350
13D
  3
MultiPageSettings/GlueMarginsTop
350
13E
  3
MultiPageSettings/PrintCropMarks
350
13F
  3
MultiPageSettings/Rows
350
140
  3
PageSettings/OffsetX
350
141
  3
PageSettings/OffsetY
350
142
  3
PageSettings/PageOrientation
350
143
  3
PageSettings/PaperHeight
350
144
  3
PageSettings/PaperWidth
350
145
  3
PageSettings/Scale
350
146
  3
PageSettings/ShowPaperBorders
350
147
  3
QCADVersion
350
148
  3
UnitSettings/Measurement
350
149
  3
UnitSettings/PaperUnit
350
14A
  0
XRECORD
  5
11C
330
119
100
AcDbXrecord
280
1
1000
White
  0
XRECORD
  5
11D
330
119
100
AcDbXrecord
280
1
1000
FullColor
  0
XRECORD
  5
11E
330
119
100
AcDbXrecord
280
1
290
0
  0
XRECORD
  5
11F
330
119
100
AcDbXrecord
280
1
290
0
  0
XRECORD
  5
120
330
119
100
AcDbXrecord
280
1
290
0
  0
XRECORD
  5
121
330
119
100
AcDbXrecord
280
1
290
0
  0
XRECORD
  5
122
330
119
100
AcDbXrecord
280
1
1000
auto
  0
XRECORD
  5
123
330
119
100
AcDbXrecord
280
1
1000
auto
  0
XRECORD
  5
124
330
119
100
AcDbXrecord
280
1
1000
auto
  0
XRECORD
  5
125
330
119
100
AcDbXrecord
280
1
1000
auto
  0
XRECORD
  5
126
330
119
100
AcDbXrecord
280
1
1000
auto
  0
XRECORD
  5
127
330
119
100
AcDbXrecord
280
1
1000
auto
  0
XRECORD
  5
128
330
119
100
AcDbXrecord
280
1
1000
auto
  0
XRECORD
  5
129
330
119
100
AcDbXrecord
280
1
1000
auto
  0
XRECORD
  5
12A
330
119
100
AcDbXrecord
280
1
290
0
  0
XRECORD
  5
12B
330
119
100
AcDbXrecord
280
1
290
0
  0
XRECORD
  5
12C
330
119
100
AcDbXrecord
280
1
290
0
  0
XRECORD
  5
12D
330
119
100
AcDbXrecord
280
1
290
0
  0
XRECORD
  5
12E
330
119
100
AcDbXrecord
280
1
 90
0
  0
XRECORD
  5
12F
330
119
100
AcDbXrecord
280
1
 90
0
  0
XRECORD
  5
130
330
119
100
AcDbXrecord
280
1
 90
0
  0
XRECORD
  5
131
330
119
100
AcDbXrecord
280
1
 90
0
  0
XRECORD
  5
132
330
119
100
AcDbXrecord
280
1
1000
auto
  0
XRECORD
  5
133
330
119
100
AcDbXrecord
280
1
1000
auto
  0
XRECORD
  5
134
330
119
100
AcDbXrecord
280
1
1000
auto
  0
XRECORD
  5
135
330
119
100
AcDbXrecord
280
1
1000
auto
  0
XRECORD
  5
136
330
119
100
AcDbXrecord
280
1
1000
auto
  0
XRECORD
  5
137
330
119
100
AcDbXrecord
280
1
1000
auto
  0
XRECORD
  5
138
330
119
100
AcDbXrecord
280
1
1000
auto
  0
XRECORD
  5
139
330
119
100
AcDbXrecord
280
1
1000
auto
  0
XRECORD
  5
13A
330
119
100
AcDbXrecord
280
1
 90
1
  0
XRECORD
  5
13B
330
119
100
AcDbXrecord
280
1
 40
10.0
  0
XRECORD
  5
13C
330
119
100
AcDbXrecord
280
1
 40
10.0
  0
XRECORD
  5
13D
330
119
100
AcDbXrecord
280
1
 40
10.0
  0
XRECORD
  5
13E
330
119
100
AcDbXrecord
280
1
 40
10.0
  0
XRECORD
  5
13F
330
119
100
AcDbXrecord
280
1
290
0
  0
XRECORD
  5
140
330
119
100
AcDbXrecord
280
1
 90
1
  0
XRECORD
  5
141
330
119
100
AcDbXrecord
280
1
 40
0.0
  0
XRECORD
  5
142
330
119
100
AcDbXrecord
280
1
 40
0.0
  0
XRECORD
  5
143
330
119
100
AcDbXrecord
280
1
1000
Portrait
  0
XRECORD
  5
144
330
119
100
AcDbXrecord
280
1
 40
297.0
  0
XRECORD
  5
145
330
119
100
AcDbXrecord
280
1
 40
210.0
  0
XRECORD
  5
146
330
119
100
AcDbXrecord
280
1
1000
1:1
  0
XRECORD
  5
147
330
119
100
AcDbXrecord
280
1
290
1
  0
XRECORD
  5
148
330
119
100
AcDbXrecord
280
1
1000
3.13.1.2
  0
XRECORD
  5
149
330
119
100
AcDbXrecord
280
1
 90
1
  0
XRECORD
  5
14A
330
119
100
AcDbXrecord
280
1
 90
4
  0
ENDSEC
  0
EOF
